<svg xmlns="http://www.w3.org/2000/svg" viewBox="0 0 131 140"><path d="M128.2 99.5l-2-5-3.3-7.2-.1-.1c-9.7-21-20-42.4-31-63.4l-.4-.8-3.4-6.6c-1.4-2.5-2.8-5.2-5-7.7C78.5 3 72 0 65.2 0c-7 0-13.3 3-18 8.4a48.3 48.3 0 0 0-5 7.7 286 286 0 0 1-3.4 6.6l-.4.8A1684 1684 0 0 0 7.4 87l-.1.3-3.2 7.1-2.1 5a29.8 29.8 0 0 0 31.5 40.4 37 37 0 0 0 14-4.7A71 71 0 0 0 65 120.4 73.6 73.6 0 0 0 82.3 135a37 37 0 0 0 17.6 5 29.7 29.7 0 0 0 29.6-25.5 26 26 0 0 0-1.3-15zM65 106.8a69.1 69.1 0 0 1-14.1-26c-.7-3.3-.9-6.1-.4-8.6.2-2.3 1-4.2 2.2-6a15 15 0 0 1 12.3-6c5.2 0 9.8 2.2 12.4 6 1 1.8 2 3.7 2.2 6 .4 2.5.3 5.4-.4 8.5a71.2 71.2 0 0 1-14.2 26zm56 6.6a21 21 0 0 1-23.5 17.8 27 27 0 0 1-10.6-3.7c-5-2.8-10-7.1-16-13.6a79 79 0 0 0 17-31c1-4.3 1.1-8.2.7-11.8-.6-3.6-1.8-6.8-3.8-9.6a23.6 23.6 0 0 0-19.8-10 24 24 0 0 0-19.7 10c-2 2.8-3.2 6-3.8 9.6-.6 3.6-.4 7.7.7 11.9a81.3 81.3 0 0 0 17 31 63 63 0 0 1-16 13.7 27.6 27.6 0 0 1-10.7 3.6 20.8 20.8 0 0 1-23.4-17.8 24 24 0 0 1 1.3-11c.4-1.3 1.1-2.7 1.8-4.4l3.2-7 .2-.3a1532 1532 0 0 1 30.8-63l.4-.8 3.4-6.4c1.1-2.2 2.4-4.3 4-6.2a14.7 14.7 0 0 1 22.3 0c1.6 1.9 2.8 4 4 6.2l3.3 6.4.4.9a1859 1859 0 0 1 30.7 63v.2l3.2 7c.8 1.7 1.5 3 1.9 4.5 1 3.6 1.5 7.1 1 10.8z"/></svg>