<svg xmlns="http://www.w3.org/2000/svg" viewBox="0 0 140 140"><path fill-rule="evenodd" d="M70 .5c2.3-.2 4.7.7 6.5 2.4l19 19.1a8.5 8.5 0 1 1-12 12L78 28.6V62h33.5l-5.6-5.5a8.5 8.5 0 0 1-.2-11.9l.2-.2a8.5 8.5 0 0 1 11.9-.2l.2.2 19 19.1a8.5 8.5 0 0 1 2.5 6.5c.2 2.3-.7 4.7-2.4 6.5l-19.1 19a8.5 8.5 0 1 1-12-12l5.5-5.5H78v33.5l5.5-5.6a8.5 8.5 0 0 1 12.3 11.9l-.2.2-19.1 19a8.5 8.5 0 0 1-6.5 2.5 8 8 0 0 1-6.2-2.2l-.3-.2-19-19.1-.3-.2c-3-3.3-3-8.4 0-11.7l.2-.2.2-.2c3.3-3 8.4-3 11.7 0l.2.2 5.5 5.6V78H28.5l5.6 5.5a8.5 8.5 0 0 1-11.9 12.3l-.2-.2L3 76.5A8.5 8.5 0 0 1 .4 70a8 8 0 0 1 2.2-6.2l.2-.3 19.1-19 .2-.3c3.3-3 8.4-3 11.7 0l.2.2.2.2c3 3.3 3 8.4 0 11.7l-.2.2-5.6 5.5H62V28.5l-5.5 5.6a8.5 8.5 0 0 1-11.9.2l-.2-.2a8.5 8.5 0 0 1-.2-11.9l.2-.2L63.5 3A8.5 8.5 0 0 1 70 .4z"/></svg>