<svg xmlns="http://www.w3.org/2000/svg" viewBox="0 0 140 140"><path fill-rule="evenodd" d="M78 78v33.5l5.5-5.6a8.5 8.5 0 1 1 12 12l-19 19.2a8.5 8.5 0 0 1-6.5 2.4c-2.3.2-4.7-.7-6.5-2.4l-19-19.1a8.5 8.5 0 1 1 12-12l5.5 5.5V78H28.5l5.6 5.5a8.5 8.5 0 1 1-12 12l-19.2-19A8.5 8.5 0 0 1 .5 70c-.2-2.3.7-4.7 2.4-6.5l19.1-19a8.5 8.5 0 1 1 12 12L28.6 62H62V28.5l-5.5 5.6a8.5 8.5 0 1 1-12-12l19-19.2A8.5 8.5 0 0 1 70 .5c2.3-.2 4.7.7 6.5 2.4l19 19.1a8.5 8.5 0 1 1-12 12L78 28.6V62h33.5l-5.6-5.5a8.5 8.5 0 1 1 12-12l19.2 19a8.5 8.5 0 0 1 2.4 6.5c.2 2.3-.7 4.7-2.4 6.5l-19.1 19a8.5 8.5 0 1 1-12-12l5.5-5.5H78z"/></svg>