<svg xmlns="http://www.w3.org/2000/svg" viewBox="0 0 120 140"><path d="M116 58a4 4 0 0 1 4 4v66a12 12 0 0 1-12 12H12a12 12 0 0 1-12-12V62a4 4 0 0 1 4-4h112zm-85 46.6H19a4 4 0 0 0-4 3.8V121a4 4 0 0 0 3.8 4H31a4 4 0 0 0 4-3.8v-12.6a4 4 0 0 0-4-4zm35 0H54a4 4 0 0 0-4 3.8V121a4 4 0 0 0 3.8 4H66a4 4 0 0 0 4-3.8v-12.6a4 4 0 0 0-4-4zm35 0H89a4 4 0 0 0-4 3.8V121a4 4 0 0 0 3.8 4H101a4 4 0 0 0 4-3.8v-12.6a4 4 0 0 0-4-4zM31 74H19a4 4 0 0 0-4 3.8v12.6a4 4 0 0 0 3.8 4H31a4 4 0 0 0 4-3.8V78a4 4 0 0 0-4-4zm35 0H54a4 4 0 0 0-4 3.8v12.6a4 4 0 0 0 3.8 4H66a4 4 0 0 0 4-3.8V78a4 4 0 0 0-4-4zm35 0H89a4 4 0 0 0-4 3.8v12.6a4 4 0 0 0 3.8 4H101a4 4 0 0 0 4-3.8V78a4 4 0 0 0-4-4zM90 0a10 10 0 0 1 10 10v10h8a12 12 0 0 1 12 12v14a4 4 0 0 1-4 4H4a4 4 0 0 1-4-4V32a12 12 0 0 1 12-12h8V10a10 10 0 1 1 20 0v10h40V10A10 10 0 0 1 90 0z"/></svg>