<svg xmlns="http://www.w3.org/2000/svg" viewBox="0 0 175 140"><path fill-rule="evenodd" d="M100 111.6c.3.3.4.8.4 1.2v8.9c0 10.7-22.6 18.4-50 18.4-27.3 0-50-7.7-50-18.4v-8.9a1.8 1.8 0 0 1 3-1.3h.1c7 7.3 25.6 12 47 12 21.1 0 39.4-4.6 46.7-11.7l.2-.2c.7-.7 1.8-.7 2.5 0zm0-30c.3.3.4.8.4 1.2v8.9c0 10.7-22.6 18.4-50 18.4-27.3 0-50-7.7-50-18.4v-8.9a1.8 1.8 0 0 1 3-1.3h.1c7 7.3 25.6 12 47 12 21.1 0 39.4-4.6 46.7-11.7l.2-.2c.7-.7 1.8-.7 2.5 0zm74-13c.3.3.4.8.4 1.2v8.9c0 10.7-22.6 18.4-50 18.4a137 137 0 0 1-15.4-.9V79.6c4.9.5 10 .8 15.4.8 21.2 0 39.5-4.5 46.8-11.6l.2-.2c.7-.7 1.8-.7 2.5 0zM50 44c27.4 0 50 7.6 50 18.4 0 10.8-22.6 18.4-50 18.4S0 73.2 0 62.4C0 51.6 22.6 44 50 44zm124-5.4c.3.3.4.8.4 1.2v8.9c0 10.7-22.6 18.4-50 18.4a137 137 0 0 1-15.4-.9v-1.8c0-6.4-3-11.1-5.4-13.4-1-1-.4-2 1-2 6 1 12.8 1.4 19.8 1.4 21.2 0 39.5-4.5 46.8-11.6l.2-.2c.7-.7 1.8-.7 2.5 0zM124 1c27.4 0 50 7.6 50 18.4 0 10.8-22.6 18.4-50 18.4s-50-7.6-50-18.4C74 8.6 96.6 1 124 1z"/></svg>