<svg xmlns="http://www.w3.org/2000/svg" viewBox="0 0 175 140"><path fill-rule="evenodd" d="M3.5 81.6c7 7.2 25.6 11.8 47 11.8 21.3 0 39.8-4.6 46.9-11.8a1.8 1.8 0 0 1 3 1.2v8.9c0 10.7-22.6 18.4-50 18.4-27.3 0-50-7.7-50-18.4v-8.9a1.8 1.8 0 0 1 3.1-1.2zm0 30c7 7.2 25.6 11.8 47 11.8 21.3 0 39.8-4.6 46.9-11.8a1.8 1.8 0 0 1 3 1.2v8.9c0 10.7-22.6 18.4-50 18.4-27.3 0-50-7.7-50-18.4v-8.9a1.8 1.8 0 0 1 3.1-1.2zM50 80.8c-27.4 0-50-7.6-50-18.4C0 51.6 22.6 44 50 44s50 7.6 50 18.4c0 10.8-22.6 18.4-50 18.4zM104.6 49c6 1 12.8 1.4 19.8 1.4 21.4 0 40-4.6 47-11.8a1.8 1.8 0 0 1 3 1.2v8.9c0 10.7-22.6 18.4-50 18.4a137 137 0 0 1-15.4-.9v-1.8c0-6.4-3-11.1-5.4-13.4-1-1-.4-2 1-2zm4.4 30.6c4.9.5 10 .8 15.4.8 21.4 0 40-4.6 47-11.8a1.8 1.8 0 0 1 3 1.2v8.9c0 10.7-22.6 18.4-50 18.4a137 137 0 0 1-15.4-.9V79.6zm15-41.8c-27.4 0-50-7.6-50-18.4C74 8.6 96.6 1 124 1s50 7.6 50 18.4c0 10.8-22.6 18.4-50 18.4z"/></svg>