<svg xmlns="http://www.w3.org/2000/svg" viewBox="0 0 145 140"><path d="M5.3 106.9c26.3-43 60.7-44.3 101.1-24.5l30 14.3c2.4 1 3.4 3.8 2.4 6l-14.3 32.5a4.6 4.6 0 0 1-6.2 2.3l-29.8-14.2c-21.6-10.3-33.5-12.7-45.4 7l-4.5 7.4a4.6 4.6 0 0 1-6.4 1.6l-30-18.5a4.6 4.6 0 0 1-1.6-6.3l4.7-7.6zM109.3 0c1.3-.3 2.6 0 3.7.7l30 18.5a4.6 4.6 0 0 1 1.5 6.3c-1.4 2.3-3 5.2-4.6 7.6-26.3 43-60.7 44.3-101.3 24.6-11.2-5.5-23.7-11.4-30-14.4a4.6 4.6 0 0 1-2.3-6L20.6 4.9a4.6 4.6 0 0 1 6.2-2.3l29.7 14.1c21.6 10.4 33.5 12.8 45.4-7l4.5-7.4c.6-1 1.7-1.9 3-2.2z"/></svg>