<svg xmlns="http://www.w3.org/2000/svg" viewBox="0 0 126 140"><path d="M46 117.8c3 0 5.6 2.5 5.6 5.5v11.1c0 3-2.4 5.5-5.4 5.6H46a5.6 5.6 0 0 1-5.6-5.6v-11c0-3 2.4-5.5 5.4-5.6h.2zm16.6-.3c3 0 5.5 2.5 5.5 5.6v11c0 3.1-2.3 5.6-5.3 5.7h-.2a5.6 5.6 0 0 1-5.6-5.6v-11c0-3 2.4-5.5 5.3-5.7h.3zm17 0c3 0 5.5 2.5 5.5 5.6v11c0 3.1-2.3 5.6-5.3 5.7h-.2a5.6 5.6 0 0 1-5.6-5.6v-11c0-3 2.4-5.5 5.3-5.7h.3zM62.8 0c16.5.2 32.3 7.1 44 18.8a63.5 63.5 0 0 1 18.9 44.7 65 65 0 0 1-1.8 21.2 56.5 56.5 0 0 1-17.4 23c-1.1 1-2 3.2-2 4.7l.5 21.8a5.6 5.6 0 0 1-11.2 0v-25l.1-1c.1-1.1.5-2.2 1.3-3.1 10-9 16-16.8 18-23.5a57.9 57.9 0 0 0 1.3-18.1 52.3 52.3 0 0 0-51.7-52.3h-.6a52.3 52.3 0 0 0-50.9 52.3c-.4 8 0 14 1.3 18 2 6.8 8 14.7 18 23.6.8.9 1.2 2 1.3 3v26.1a5.6 5.6 0 0 1-11.1.2v-.2l.5-21.8c0-1.5-1-3.6-2-4.6a56.5 56.5 0 0 1-17.4-23A64.2 64.2 0 0 1 0 63.4c0-16.8 7-32.8 18.9-44.7A63.1 63.1 0 0 1 62 0h.7zm3.6 88l3.8 6.5L74 101c1.8 3.1.3 5.7-3.3 5.7H55.5c-3.7 0-5.1-2.6-3.3-5.7l3.8-6.6 3.8-6.6c1.8-3.1 4.7-3.1 6.6 0zm-26-37.8a18.5 18.5 0 1 1 0 37 18.5 18.5 0 0 1 0-37zm44.5 0a18.5 18.5 0 1 1 0 37 18.5 18.5 0 0 1 0-37z"/></svg>