<svg xmlns="http://www.w3.org/2000/svg" viewBox="0 0 126 140"><path d="M62.8 0c16.5.2 32.3 7.1 44 18.8a63.5 63.5 0 0 1 18.9 44.7 65 65 0 0 1-1.8 21.2 56.5 56.5 0 0 1-17.4 23c-1.1 1-2 3.2-2 4.7l.5 21.8c0 3-2.5 5.6-5.6 5.6H88.2v-11.2c0-3.1-2.5-5.6-5.6-5.6h-.2c-3 .1-5.4 2.6-5.4 5.6v11.2h-8.8v-11.2c0-3.1-2.5-5.6-5.6-5.6h-.2c-3 .1-5.4 2.6-5.4 5.6v11.2h-8.8v-11.2c0-3.1-2.5-5.6-5.6-5.6h-.2c-3 .1-5.4 2.6-5.4 5.6v11.2H26.4a5.6 5.6 0 0 1-5.6-5.6l.5-21.8c0-1.5-1-3.6-2-4.6a56.5 56.5 0 0 1-17.4-23A64.2 64.2 0 0 1 0 63.4c0-16.8 7-32.8 18.9-44.7A63.1 63.1 0 0 1 62.8 0zm3.6 88c-1.9-3.2-4.8-3.2-6.6 0L56 94.4l-3.8 6.6c-1.8 3.1-.4 5.7 3.3 5.7h15.2c3.6 0 5-2.6 3.3-5.7l-3.8-6.6zm-26-37.8a18.5 18.5 0 1 0 0 37 18.5 18.5 0 0 0 0-37zm44.5 0a18.5 18.5 0 1 0 0 37 18.5 18.5 0 0 0 0-37z"/></svg>