<svg xmlns="http://www.w3.org/2000/svg" viewBox="0 0 175 140"><path fill-rule="evenodd" d="M151.9 8a10 10 0 0 1 0 14L42.3 132a10 10 0 0 1-14.2 0 10 10 0 0 1 0-14l5.5-5.6C13.2 100 0 82.6 0 70c0-21.8 39.2-56.4 87.5-56.4 13.5 0 26.2 2.7 37.6 7L137.7 8A10 10 0 0 1 152 8zm2.4 29.5C167.3 48 175 60.3 175 70c0 21.8-39.2 57.7-87.5 57.7a100 100 0 0 1-20.9-2.2l18-18 2.9.1A37.6 37.6 0 0 0 124.9 67l29.4-29.5zm-66.8-5.1A37.6 37.6 0 0 0 55.8 90l11-11a22.6 22.6 0 0 1 29.7-29.8l11-11a37.2 37.2 0 0 0-20-6z"/></svg>