<svg xmlns="http://www.w3.org/2000/svg" viewBox="0 0 175 140"><path d="M29 109.4C11.3 97.4 0 81.6 0 70c0-21.8 39.2-56.4 87.5-56.4 11.3 0 22.1 1.9 32 5L130.2 8a10 10 0 0 1 14.2 0 10 10 0 0 1 0 14.2L34.8 132a10 10 0 0 1-14.2 0 10 10 0 0 1 0-14.2l8.5-8.5zM107.4 31a89 89 0 0 0-73 15C22.3 54.6 15 64.9 15 70c0 5.3 7.3 15.8 19.5 24.9l5.4 3.7 17.8-17.9a31.4 31.4 0 0 1 39.2-39.3l10.4-10.5zm-46 93.3L74 111.5A90.5 90.5 0 0 0 140.5 95c12.2-9 19.5-19.6 19.5-24.9 0-5.2-7.2-15.4-19.4-24.1l-.7-.5 10.8-10.8C165.7 45.8 175 59.4 175 70c0 21.8-39.2 57.7-87.5 57.7-9.1 0-17.9-1.3-26.1-3.5zm21.9-21.9L118.6 67c.1 1.4.3 2.9.3 4.4a31.3 31.3 0 0 1-35.6 31z"/></svg>