<svg xmlns="http://www.w3.org/2000/svg" viewBox="0 0 140 140"><path fill-rule="evenodd" d="M8 40h34a8 8 0 0 1 8 8v14a8 8 0 0 1-8 8H8a8 8 0 0 1-8-8V48a8 8 0 0 1 8-8zm10 40h24a8 8 0 0 1 8 8v44a8 8 0 0 1-8 8H18a8 8 0 0 1-8-8V88a8 8 0 0 1 8-8zm50 0h54a8 8 0 0 1 8 8v44a8 8 0 0 1-8 8H68a8 8 0 0 1-8-8V88a8 8 0 0 1 8-8zm0-40h64a8 8 0 0 1 8 8v14a8 8 0 0 1-8 8H68a8 8 0 0 1-8-8V48a8 8 0 0 1 8-8zM52.2 14.9h6.6L74 3.1A14.9 14.9 0 0 1 98 15c0 11-9 20-20 20H33c-11 0-20-9-20-20A14.9 14.9 0 0 1 37 3.1L52.2 15zM30.9 11a4.9 4.9 0 0 0-7.9 4 10 10 0 0 0 10 10h5.7c0-2.2.8-4.4 2.1-6.1L31 11zm41.4 14H78a10 10 0 0 0 10-10 4.9 4.9 0 0 0-7.9-3.9l-10 7.8c1.4 1.7 2.1 3.9 2.2 6.1z"/></svg>