<svg xmlns="http://www.w3.org/2000/svg" viewBox="0 0 140 140"><path fill-rule="evenodd" d="M57 80a8 8 0 0 1 8 8v44a8 8 0 0 1-8 8H18a8 8 0 0 1-8-8V88a8 8 0 0 1 8-8h39zm65 0a8 8 0 0 1 8 8v44a8 8 0 0 1-8 8H83a8 8 0 0 1-8-8V88a8 8 0 0 1 8-8h39zM101.5 0h.5c10.7 0 19.3 8.6 19.5 19.2v.9c-.2 7.8-3.7 15-9.6 19.9H132a8 8 0 0 1 8 8v14a8 8 0 0 1-8 8H8a8 8 0 0 1-8-8V48a8 8 0 0 1 8-8h21c-5.7-4.9-9.3-12-9.4-19.9v-.9c.2-10.7 9-19.3 19.7-19.3 10.4 0 19.8 6.2 24 15.6l.3.4L70 31l6.7-15A27.3 27.3 0 0 1 101.5-.1zm.3 14h-.3c-5.1 0-9.8 3-12 7.7l-7.4 17L99.9 31c4.5-2 7.5-6.3 7.6-11.1v-.6c-.1-3-2.7-5.5-5.7-5.5zm-62.5 0c-3-.1-5.6 2.3-5.7 5.3v.7c.1 4.7 3 9 7.3 11l.3.2L58 38.6l-7.4-17.2c-2-4.5-6.5-7.5-11.4-7.5z"/></svg>