<svg xmlns="http://www.w3.org/2000/svg" viewBox="0 0 152 140"><path d="M151.5 78.4l-8-24.4c0-.2 0-.4-.2-.6l-16-49a6.4 6.4 0 0 0-6-4.4 6.2 6.2 0 0 0-6 4.4L100 51H52L36.6 4.4a6.2 6.2 0 0 0-6-4.4 6.4 6.4 0 0 0-6 4.4l-16 49-.1.2L.4 78.4a9 9 0 0 0 3.4 10.2l70 50.7c1.3 1 3 1 4.3 0l70-50.7a9 9 0 0 0 3.4-10.2M46.7 58.3l19.6 59.9-47-60m66.4 60l18.7-57.5.9-2.4h27.3l-42.4 54.1M121.3 9l13.8 42h-27.5m-9.9 7.2L84.1 100 76 124.8 54.3 58.2M30.6 9l13.8 42H16.9M8 82.9a2 2 0 0 1-.6-2.2l6-18.4 44.2 56.4M144 82.8l-49.5 35.8.1-.2 44-56.2 6 18.4a2 2 0 0 1-.6 2.2"/></svg>