<svg xmlns="http://www.w3.org/2000/svg" viewBox="0 0 140 140"><path d="M70 0a70 70 0 1 1 0 140A70 70 0 0 1 70 0zm-5 109.5H47.8c4.6 10 10.7 17.1 17.2 19.6v-19.6zm27.2 0H75v19.6c6.5-2.5 12.6-9.5 17.2-19.6zm-55.2 0H24.8a60.2 60.2 0 0 0 20.1 15c-3-4.3-5.7-9.3-8-15zm78.2 0H103a70.3 70.3 0 0 1-8 15 60.2 60.2 0 0 0 20.2-15zM30 75H10.2c.7 8.9 3.4 17.2 7.5 24.5h16c-2-7.5-3.2-15.8-3.6-24.5zm35 0H40.1c.4 9 1.8 17.2 4 24.5H65V75zm34.9 0H75v24.5h21c2-7.3 3.5-15.6 3.9-24.5zm29.9 0h-19.9c-.4 8.7-1.6 17-3.6 24.5h16a59.6 59.6 0 0 0 7.5-24.5zm-96-34.5h-16A59.6 59.6 0 0 0 10.1 65H30c.4-8.7 1.6-17 3.6-24.5zm10.3 0c-2.2 7.3-3.6 15.6-4 24.5H65V40.5H44zm51.8 0H75V65h24.9c-.4-9-1.8-17.2-4-24.5zm26.4 0h-16c2 7.5 3.2 15.8 3.6 24.5h19.9a59.6 59.6 0 0 0-7.5-24.5zM65 10.9c-6.5 2.5-12.6 9.5-17.2 19.6H65V10.9zm-20 4.6l-1 .4a60.8 60.8 0 0 0-19.2 14.6H37a70.3 70.3 0 0 1 8-15zm30-4.6v19.6h17.2c-4.6-10-10.7-17.1-17.2-19.6zm20 4.6l.6.7c2.8 4.1 5.3 9 7.4 14.3h12.2a60.2 60.2 0 0 0-20.1-15z"/></svg>