<svg xmlns="http://www.w3.org/2000/svg" viewBox="0 0 157 140"><path fill-rule="evenodd" d="M11.2 0h22.4c6.2 0 11.2 5 11.2 11.2V28c0 6.2-5 11.2-11.2 11.2H11.2C5 39.2 0 34.2 0 28V11.2C0 5 5 0 11.2 0zm56 0h22.4c6.2 0 11.2 5 11.2 11.2V28c0 6.2-5 11.2-11.2 11.2H67.2C61 39.2 56 34.2 56 28V11.2C56 5 61 0 67.2 0zm56 0h22.4c6.2 0 11.2 5 11.2 11.2V28c0 6.2-5 11.2-11.2 11.2h-22.4c-6.2 0-11.2-5-11.2-11.2V11.2C112 5 117 0 123.2 0zm-112 100.8h22.4c6.2 0 11.2 5 11.2 11.2v16.8c0 6.2-5 11.2-11.2 11.2H11.2C5 140 0 135 0 128.8V112c0-6.2 5-11.2 11.2-11.2zm56 0h22.4c6.2 0 11.2 5 11.2 11.2v16.8c0 6.2-5 11.2-11.2 11.2H67.2C61 140 56 135 56 128.8V112c0-6.2 5-11.2 11.2-11.2zm56 0h22.4c6.2 0 11.2 5 11.2 11.2v16.8c0 6.2-5 11.2-11.2 11.2h-22.4c-6.2 0-11.2-5-11.2-11.2V112c0-6.2 5-11.2 11.2-11.2zm-112-50.4h22.4c6.2 0 11.2 5 11.2 11.2v16.8c0 6.2-5 11.2-11.2 11.2H11.2C5 89.6 0 84.6 0 78.4V61.6c0-6.2 5-11.2 11.2-11.2zm56 0h22.4c6.2 0 11.2 5 11.2 11.2v16.8c0 6.2-5 11.2-11.2 11.2H67.2c-6.2 0-11.2-5-11.2-11.2V61.6c0-6.2 5-11.2 11.2-11.2zm56 0h22.4c6.2 0 11.2 5 11.2 11.2v16.8c0 6.2-5 11.2-11.2 11.2h-22.4c-6.2 0-11.2-5-11.2-11.2V61.6c0-6.2 5-11.2 11.2-11.2z"/></svg>