<svg xmlns="http://www.w3.org/2000/svg" viewBox="0 0 140 140"><path fill-rule="evenodd" d="M66.6 0h6.8c15.9 0 18.4.1 25.4.5 7.5.3 12.6 1.5 17 3.2a35.6 35.6 0 0 1 20.4 20.5c1.8 4.4 3 9.5 3.3 17 .4 7 .4 9.6.5 26v5.7c0 16.4-.1 18.9-.5 26a51.4 51.4 0 0 1-3.2 17 34.3 34.3 0 0 1-8 12.4 34.3 34.3 0 0 1-12.5 8c-4.4 1.8-9.5 3-17 3.3-7 .3-9.6.4-26 .4h-5.7c-16.4 0-18.9-.1-26-.4a51.4 51.4 0 0 1-17-3.3 34.3 34.3 0 0 1-12.4-8 34.3 34.3 0 0 1-8-12.4c-1.8-4.5-3-9.6-3.3-17-.3-7-.4-9.6-.4-25.5v-6.8c0-15.9.1-18.4.4-25.4.4-7.5 1.5-12.6 3.3-17A35.6 35.6 0 0 1 24.1 3.8c4.5-1.8 9.6-3 17-3.3 7-.4 9.6-.4 25.5-.5h6.8zm5.1 12.7h-3.4c-17.2 0-19.5 0-26.6.4-6.8.3-10.5 1.4-13 2.4a21.7 21.7 0 0 0-8 5.2c-2.5 2.5-4 4.8-5.3 8-1 2.5-2 6.2-2.4 13-.3 7.2-.4 9.5-.4 26.6v3.4c0 17.2 0 19.5.4 26.6.3 6.8 1.5 10.5 2.4 13 1.3 3.3 2.8 5.6 5.3 8 2.4 2.5 4.7 4 8 5.3 2.5 1 6.2 2 13 2.4 7.1.3 9.4.4 26.6.4h3.4c17.1 0 19.4 0 26.6-.4 6.8-.3 10.5-1.5 13-2.4 3.2-1.3 5.5-2.8 8-5.3 2.4-2.4 4-4.7 5.2-8 1-2.5 2.1-6.2 2.4-13 .4-7.1.4-9.4.4-26.6v-3.4c0-17.1 0-19.4-.4-26.6a38.7 38.7 0 0 0-2.4-13 21.7 21.7 0 0 0-5.2-8c-2.5-2.4-4.8-4-8-5.2-2.5-1-6.2-2.1-13-2.4-7.2-.4-9.5-.4-26.6-.4zM70 34a36 36 0 1 1 0 71.9 36 36 0 0 1 0-72zm0 12.6a23.3 23.3 0 1 0 0 46.6 23.3 23.3 0 0 0 0-46.6zm37.3-22.4a8.4 8.4 0 1 1 0 16.8 8.4 8.4 0 0 1 0-16.8z"/></svg>