<svg xmlns="http://www.w3.org/2000/svg" viewBox="0 0 138 140"><path d="M83 50l-.2.3c2.3 1.9 3.7 4.8 3.7 8.1a10 10 0 0 1-10 9.9c-3.2 0-6-2.3-9-4.4-6-2.5-13-1.3-18 3.6l-23.9 24a16.3 16.3 0 0 0 0 23 16.3 16.3 0 0 0 23-.1l13.2-13.2c8.5 3 17.6 3.6 26 1.8l-1.3 1.4-24 24a36.1 36.1 0 0 1-51 .2c-14-14-14-37 .2-51.1l24-24A36 36 0 0 1 83 50.1zm44.5-39.6c14 14 14 37-.2 51.1l-24 24A36.2 36.2 0 0 1 56 89l.2-.3a10.3 10.3 0 0 1-3.7-8 10 10 0 0 1 10-10c3.2 0 6 2.3 9 4.5 6 2.4 13 1.2 17.9-3.7l24-23.9a16.3 16.3 0 0 0 0-23 16.3 16.3 0 0 0-23 0L77 37.8c-8.5-3-17.5-3.6-26-1.7l1.4-1.5 24-23.9a36.1 36.1 0 0 1 51-.3z"/></svg>