<svg xmlns="http://www.w3.org/2000/svg" viewBox="0 0 158 140"><path fill-rule="evenodd" d="M11.3 0h22.6C40 0 45.2 5 45.2 11.3v17c0 6.2-5 11.2-11.3 11.2H11.3C5 39.5 0 34.5 0 28.2v-17C0 5.2 5 0 11.3 0zm56.4 0h79c6.3 0 11.4 5 11.4 11.3v17c0 6.2-5 11.2-11.3 11.2h-79c-6.3 0-11.3-5-11.3-11.3v-17c0-6.1 5-11.2 11.2-11.2zM11.3 50.8h22.6c6.2 0 11.3 5 11.3 11.3v17c0 6.2-5 11.2-11.3 11.2H11.3C5 90.3 0 85.3 0 79V62.1c0-6.2 5-11.3 11.3-11.3zm56.4 0h79c6.3 0 11.4 5 11.4 11.3v17c0 6.2-5 11.2-11.3 11.2h-79c-6.3 0-11.3-5-11.3-11.3V62.1c0-6.2 5-11.3 11.2-11.3zm-56.4 49.7h22.6c6.2 0 11.3 5 11.3 11.3v17c0 6.1-5 11.2-11.3 11.2H11.3C5 140 0 135 0 128.7v-17c0-6.2 5-11.2 11.3-11.2zm56.4 0h79c6.3 0 11.4 5 11.4 11.3v17c0 6.1-5 11.2-11.3 11.2h-79c-6.3 0-11.3-5-11.3-11.3v-17c0-6.2 5-11.2 11.2-11.2z"/></svg>