<svg xmlns="http://www.w3.org/2000/svg" viewBox="0 0 140 140"><path fill-rule="evenodd" d="M55 10h75a10 10 0 0 1 0 20H55a10 10 0 1 1 0-20zm0 50h75a10 10 0 0 1 0 20H55a10 10 0 1 1 0-20zm0 50h75a10 10 0 0 1 0 20H55a10 10 0 0 1 0-20zM17.8 0A6 6 0 0 1 23 6v28a6 6 0 1 1-12 0V15.3l-2.6 1.2a6 6 0 1 1-5-10.9l10.8-5a6 6 0 0 1 3.5-.5zM23 71.9l-6.4 7.8H23a5 5 0 1 1 0 10H6a5 5 0 0 1-3.9-8.1l13.1-16a3.6 3.6 0 0 0-.3-5c-1-.8-2.4-.7-3.2.3l-2 2.1a5 5 0 0 1-7.5-6.6l2-2.1a12.3 12.3 0 0 1 17.8-.6c5 5 5.4 12.8 1 18.2zm3.6 35.5L22 113a14.5 14.5 0 1 1-22 12.4 4.5 4.5 0 0 1 9 0 5.5 5.5 0 1 0 5.5-5.5 4.5 4.5 0 0 1-3.6-7.3l3-3.7H8.3a4.5 4.5 0 0 1 0-9H23c3.7 0 5.8 4.3 3.6 7.3z"/></svg>