<svg xmlns="http://www.w3.org/2000/svg" viewBox="0 0 140 140"><path fill-rule="evenodd" d="M23 100c3.7 0 5.8 4.3 3.6 7.3L22 113a14.5 14.5 0 1 1-22 12.4 4.5 4.5 0 0 1 9 0 5.5 5.5 0 1 0 5.5-5.5 4.5 4.5 0 0 1-3.6-7.3l3-3.7H8.3a4.5 4.5 0 0 1 0-9zm107 10a10 10 0 0 1 0 20H55a10 10 0 0 1 0-20h75zM21.4 53l.6.6a13.6 13.6 0 0 1 1.2 18l-.2.2-6.4 7.8H23a5 5 0 0 1 .2 10H6a5 5 0 0 1-4-8l.1-.1 13.1-16a3.6 3.6 0 0 0-.3-5c-1-.7-2.3-.7-3.1.2h-.1l-2 2.2a5 5 0 0 1-7.6-6.4l.1-.2 2-2.1A12.3 12.3 0 0 1 21.3 53zM130 60a10 10 0 0 1 0 20H55a10 10 0 1 1 0-20h75zM17.6 0h.1a6 6 0 0 1 5.4 6v28a6 6 0 1 1-12 0V15.3l-2.6 1.2a6 6 0 1 1-5-10.9l10.8-5a6 6 0 0 1 3.3-.6zM130 10a10 10 0 0 1 0 20H55a10 10 0 1 1 0-20h75z"/></svg>