<svg xmlns="http://www.w3.org/2000/svg" viewBox="0 0 120 140"><path d="M108.5 38.4c2.3 1.1 4.4 2.7 6 4.6 5.5 6.2 6.6 15 4.5 25.4-4.9 25-21.7 33.8-43.2 33.8h-3.4a5.3 5.3 0 0 0-5.2 4.4l-.3 1.5-4.2 26.3-.2 1.1a5.3 5.3 0 0 1-5.3 4.5H35a3.2 3.2 0 0 1-3.2-3.7l1.9-11.4L40 84.5a6 6 0 0 1 6-5h12.5c24.6 0 43.8-10 49.5-38.6l.4-2.5zm-4.1-1.3c-5.7 28.7-24.9 38.6-49.5 38.6H42.4a6 6 0 0 0-6 5l.2-1.2-6.5 40.8c0 .5-.5.8-1 .8H3.7c-1.1 0-2.1-.4-2.8-1.2-.7-.9-1-2-.9-3L17.8 5.1a6 6 0 0 1 6-5.1h42.7C81.2 0 92.7 3 99 10.3c5.8 6.5 7.5 13.7 5.8 24.3l-.4 2.5z"/></svg>