<svg xmlns="http://www.w3.org/2000/svg" viewBox="0 0 175 140"><path fill="#1F1F1F" fill-rule="evenodd" d="M173.4 106.3a32.8 32.8 0 0 1-11.7 7.4l-62.4 22.4v-16.5l45.9-16.3c5.2-2 6-4.5 1.8-6a31 31 0 0 0-17.1 1L99.3 109V92l1.8-.6s8.8-3.1 21.3-4.5c12.4-1.4 27.6.2 39.5 4.7 13.4 4.3 15 10.5 11.5 14.8zm-68.1-28V36c0-5-1-9.6-5.6-10.9-3.5-1.1-5.8 2.2-5.8 7.2V138l-28.5-9V3c12.2 2.2 29.8 7.6 39.3 10.8C128.8 22 137 32.4 137 55.6c0 22.6-14 31.2-31.7 22.6zM13 117.8c-13.8-4-16-12-9.8-16.7A67.6 67.6 0 0 1 19 93.7L60 79v16.6l-29.4 10.5c-5.2 1.9-6 4.5-1.8 5.9a31 31 0 0 0 17-.9l14.2-5v14.7l-2.8.5a92.5 92.5 0 0 1-44-3.5z"/></svg>