<svg xmlns="http://www.w3.org/2000/svg" viewBox="0 0 157 140"><path d="M96.4 101.2c-4.3 6-8.8 11.5-13.3 16.3a95 95 0 0 0 7.5 6.5c10.6 8.2 19.2 10.7 23.6 8 4.5-2.5 6.7-11.2 4.9-24.4a95 95 0 0 0-2-9.8c-6.3 1.5-13.3 2.7-20.7 3.4zm-8.8.6a193 193 0 0 1-18.4 0c3 4 6.1 7.6 9.2 10.9 3-3.3 6.2-7 9.2-10.9zm36-58c20.1 5.9 33.2 15.4 33.2 26.2 0 10.8-13 20.3-33.1 26.1 5 20.3 3.3 36.4-6.1 41.8-9.4 5.4-24.2-1.2-39.2-15.6-15 14.4-29.8 21-39.2 15.6-9.4-5.4-11-21.5-6-41.8C13 90.3 0 80.8 0 70s13-20.3 33.1-26.1c-5-20.3-3.3-36.4 6.1-41.8 9.4-5.4 24.2 1.2 39.2 15.6 15-14.4 29.8-21 39.2-15.6 9.4 5.4 11 21.5 6 41.8zm-6.4-1.6a95 95 0 0 0 1.9-9.8c1.8-13.2-.4-21.9-4.9-24.5-4.4-2.6-13 0-23.6 8a95 95 0 0 0-7.5 6.6c4.5 4.8 9 10.3 13.3 16.3a159 159 0 0 1 20.8 3.4zM39.6 97.8a95 95 0 0 0-1.9 9.8c-1.8 13.2.4 21.9 4.9 24.5 4.4 2.6 13 0 23.6-8 2.4-2 5-4.2 7.5-6.6-4.5-4.8-9-10.3-13.3-16.3a159 159 0 0 1-20.8-3.4zm29.6-59.6a193 193 0 0 1 18.4 0c-3-4-6.1-7.6-9.2-10.9-3 3.3-6.2 7-9.2 10.9zm-8.8.6c4.3-6 8.8-11.5 13.3-16.3a95 95 0 0 0-7.5-6.5C55.6 7.8 47 5.3 42.6 8c-4.5 2.5-6.7 11.2-4.9 24.4a95 95 0 0 0 2 9.8c6.3-1.5 13.3-2.7 20.7-3.4zm32.3 56A183.8 183.8 0 0 0 107 70a183.8 183.8 0 0 0-14.3-24.7 183.8 183.8 0 0 0-28.6 0A183.8 183.8 0 0 0 49.8 70a183.8 183.8 0 0 0 14.3 24.7 183.8 183.8 0 0 0 28.6 0zm8.7-1a120 120 0 0 0 14-2.5c-1.4-4.3-3-8.8-4.9-13.3a193 193 0 0 1-9.1 15.8zm-46-47.6a120 120 0 0 0-14 2.5c1.4 4.3 3 8.8 4.9 13.3a193 193 0 0 1 9.1-15.8zm-14 45.1c4.5 1 9.1 1.9 14 2.5A193 193 0 0 1 46.3 78c-2 4.5-3.5 9-4.9 13.3zM35 89.6A173 173 0 0 1 42.5 70 173 173 0 0 1 35 50.4a95 95 0 0 0-9.4 3.2C13.1 58.6 6.7 64.8 6.7 70c0 5.2 6.4 11.4 18.8 16.4 3 1.2 6 2.3 9.4 3.2zm80.5-41c-4.5-1-9.1-1.8-14-2.4a193 193 0 0 1 9.1 15.8c2-4.5 3.5-9 4.9-13.3zm6.5 1.8a173 173 0 0 1-7.5 19.6 173 173 0 0 1 7.5 19.6c3.3-1 6.5-2 9.4-3.2 12.4-5 18.8-11.2 18.8-16.4 0-5.2-6.4-11.4-18.8-16.4a95 95 0 0 0-9.4-3.2zM78.4 84a14.6 14.6 0 1 1 0-29.1 14.6 14.6 0 0 1 0 29.1z"/></svg>