<svg xmlns="http://www.w3.org/2000/svg" viewBox="0 0 124 140"><path fill-rule="evenodd" d="M104 140a8 8 0 0 0 8-8V88.3a20 20 0 0 0 0-36.6V8a8 8 0 1 0-16 0v43.7a20 20 0 0 0 0 36.6V132a8 8 0 0 0 8 8zm-42 0a8 8 0 0 0 8-8v-3.7a20 20 0 0 0 0-36.6V8a8 8 0 1 0-16 0v83.7a20 20 0 0 0 0 36.6v3.7a8 8 0 0 0 8 8zm-42 0a8 8 0 0 0 8-8V58.3a20 20 0 0 0 0-36.6V8a8 8 0 1 0-16 0v13.7a20 20 0 0 0 0 36.6V132a8 8 0 0 0 8 8zm0-92a8 8 0 1 1 0-16 8 8 0 0 1 0 16zm84 30a8 8 0 1 1 0-16 8 8 0 0 1 0 16zm-42 40a8 8 0 1 1 0-16 8 8 0 0 1 0 16z"/></svg>