<svg xmlns="http://www.w3.org/2000/svg" viewBox="0 0 140 140"><path fill-rule="evenodd" d="M140 112a8 8 0 0 1-8 8H88.3a20 20 0 0 1-36.6 0H8a8 8 0 1 1 0-16h43.7a20 20 0 0 1 36.6 0H132a8 8 0 0 1 8 8zm0-42a8 8 0 0 1-8 8h-3.7a20 20 0 0 1-36.6 0H8a8 8 0 1 1 0-16h83.7a20 20 0 0 1 36.6 0h3.7a8 8 0 0 1 8 8zm0-42a8 8 0 0 1-8 8H58.3a20 20 0 0 1-36.6 0H8a8 8 0 1 1 0-16h13.7a20 20 0 0 1 36.6 0H132a8 8 0 0 1 8 8zm-92 0a8 8 0 1 0-16 0 8 8 0 0 0 16 0zm30 84a8 8 0 1 0-16 0 8 8 0 0 0 16 0zm40-42a8 8 0 1 0-16 0 8 8 0 0 0 16 0z"/></svg>