<svg xmlns="http://www.w3.org/2000/svg" viewBox="0 0 147 140"><path fill-rule="evenodd" d="M75.1 1h-2.9c-6 0-26.7 1.8-36.4 23.6-3.3 7.4-2.5 19.9-1.9 30l.3 3.5c-.5.3-1.5.6-3 .6-1.8 0-4.1-.6-6.7-1.8-.7-.3-1.5-.4-2.3-.4-3 0-6.6 2-7.2 4.9-.4 2.1.6 5.2 7.4 8l2.1.7c2.8.9 7.1 2.2 8.3 5 .6 1.4.3 3.2-.7 5.4l-.1.1c-.4.9-9.4 21.5-29.4 24.8a3 3 0 0 0-2.6 3.2c0 .5.1 1 .3 1.4 1.5 3.5 7.9 6.1 19.4 7.9.4.5.8 2.4 1 3.5l.9 3.5a3.4 3.4 0 0 0 3.6 2.6c1 0 2-.2 3.3-.5a34.5 34.5 0 0 1 13.5-.4 26 26 0 0 1 10.5 5.5 33.2 33.2 0 0 0 22.1 7.9c9 0 15-4.2 20.2-8 3.7-2.5 6.9-4.8 10.6-5.4a34.4 34.4 0 0 1 13.5.4l3.3.4h.2c1.7 0 2.9-1 3.4-2.6l.8-3.4c.3-1.1.7-3 1-3.5 11.6-1.8 18-4.4 19.4-7.9l.4-1.4c0-1.5-1-3-2.6-3.2-20-3.3-29-24-29.4-24.8v-.1c-1.2-2.2-1.4-4-.8-5.4 1.2-2.8 5.4-4.1 8.2-5l2.2-.8c5-2 7.5-4.4 7.4-7.2 0-2.2-1.7-4.2-4.5-5.1-.9-.4-2-.6-3-.6-.8 0-1.8 0-2.9.5a17.2 17.2 0 0 1-6.3 1.8c-1.2 0-2-.3-2.5-.6l.2-3.1v-.5c.7-10 1.4-22.5-1.8-29.9A39.3 39.3 0 0 0 75 1.1z"/></svg>