<svg xmlns="http://www.w3.org/2000/svg" viewBox="0 0 116 140"><path fill="#202020" d="M61 0c22 0 20.8 23.3 20.6 36 0 7.8 4.2 13.3 8.6 18.9l.6.7c4.2 5 9.6 12 12.8 20.3a31.5 31.5 0 0 1 1 21.7 7.2 7.2 0 0 1 2.2 1.3c1.8 1.6 2.4 4 2.9 6.1.5 2.3 1 4.3 2 5.4 3 3.4 4.3 5.9 4.2 8.1-.1 2.3-1.8 3.8-3.8 5-4 2.4-9.9 4.2-13.6 8.4l-.4.4-.7-.6.7.6A20 20 0 0 1 85 140a11 11 0 0 1-11-6v-.3a8 8 0 0 1-.8-1.9c-5.9.4-11-1.4-15-1-6.1.2-9.9 1.7-13.3 1.7a10 10 0 0 1-7.1 5.5c-4.3 1-9.6 0-14.9-2.6l-.5-.2.2-.4-.2.4c-5-2.7-11.5-2.4-16.3-3.4-2.3-.5-4.4-1.4-5.5-3.4-1-2-.8-4.7.7-8.7.4-1.4 0-3.4-.3-5.6l-.3-3.3a7 7 0 0 1 .8-3.4 8.4 8.4 0 0 1 5-4c1.9-.6 3.5-1 4.7-2.2 1.3-1.3 2.4-3.3 4-5l.6-.5c-.8-4.8 0-9.7 1.6-14.6a87.3 87.3 0 0 1 16-26.5A31.5 31.5 0 0 0 39.5 37c.5-8.8-6.2-35 18.6-37H61zm22.8 95.3l-.3.2c-2 1-3 3-3.7 5.7-.7 2.7-1 6-1.1 10v.6c-.3 3.2-1.8 7.2-2.8 11.1-1 3.8-1.5 7.3-.4 9.7v.2a9 9 0 0 0 9.3 5.3c4-.3 8.4-2.7 12-7 4.2-5 10.7-7 14.4-9.2 1.8-1 2.8-2.1 3-3.5 0-1.3-.9-3.4-3.5-6.4l-.3-.3c-1.5-1.7-2-4-2.4-6.2-.5-2.1-1-4-2.1-5l-.2-.2c-1.6-1.4-3.1-1.5-5-1.4h-1.2c-2.1 2.4-7 5.4-10.5 4.5-3.2-.8-5-4.5-5.2-8zm-63.4.3c-1.7 0-2.8.8-4 2-1.1 1.2-2.1 3-3.4 4.4l-.4.5c-1.7 1.6-3.7 2-5.4 2.7-1.7.6-3 1.2-4 2.8v.3c-.8 1.4-.7 3.3-.3 5.5.3 2 .8 4.2.2 6.2v.3c-1.5 3.8-1.4 6-.8 7.3.7 1.2 2 1.9 4.2 2.3 4.4 1 11.1.7 16.8 3.7a21.5 21.5 0 0 0 14 2.6c3.8-.8 6.2-3.1 6.6-7.3v-.3c.3-2.6-1.7-5.9-4.2-9.2-2.5-3.2-5.3-6.3-6.8-9.2l-.2-.4-5.4-9.7c-1.8-2.6-3.8-4.1-6-4.4l-.9-.1zM71 42.4a11.7 11.7 0 0 1-6.2 4c-1.2.5-2.6 1.6-4.3 2.5a11.5 11.5 0 0 1-6.5 1.7 8 8 0 0 1-5.1-2c-1.3-1-2.2-2-3.5-2.8l-1.7-1.1C43.2 55 36.2 68 32.9 75.5a47.1 47.1 0 0 0-3.8 16.8c-6-8-1.6-18.1.8-22.5 2.6-4.9 3-6.2 2.3-5.7a57 57 0 0 0-7.4 16.1c-.8 3.3-1 6.6 0 9.7 1 3 3 5.8 6.8 8.1l.5.4c4.8 3 8 5.9 10 8.5 2 2.8 2.6 5.2 2 6.9-.3.8-1 1.5-1.9 1.9-.7.3-1.6.5-2.7.5a144.5 144.5 0 0 1 4 5.3c10.4 7 22.6 4.4 31.4-1.9.8-2.8 1.6-5.5 1.8-7.5v-.4c.3-4.2.5-7.9 1.3-11 .7-3 2.1-5.5 4.6-6.9l1.2-.5.1-.8c.8-4.8 5-5 10.4-2.6 5.2 2.3 7.2 4.4 6.3 7.1h1.1c1-3.5-1.2-6-7.2-9l-1.2-.5c.8-3.3.6-6.6-.1-9.8-1.7-6.9-6.2-13-9.7-16-.6-.1-.6.4.7 1.7 3.2 3 10.2 13.4 6.4 23.2-1-.3-2-.4-3-.4-1.4-8-4.8-14.5-6.4-17.7A141 141 0 0 1 71 42.4zM54.6 30.6c-1 0-2 .2-2.8.4-2.3.8-4 2.5-4.9 3.5l-1 .8-2.9 2c-1.1 1-1.5 2-1.1 3.4.4 1.3 1.7 2.8 4 4.2 1.5.8 2.5 2 3.6 2.9a7.7 7.7 0 0 0 4.5 1.8c2.5 0 4.4-.7 6-1.6 1.6-.9 3-2 4.5-2.5 3.2-1 5.5-3 6.3-5 .3-1 .3-1.8-.1-2.7a5.5 5.5 0 0 0-2.8-2.2c-3.2-1.4-4.5-1.5-6.2-2.6a13.1 13.1 0 0 0-7.1-2.4zm12.8 7.3c.8 0 .2.9-.8 1.8a18 18 0 0 1-4 2.8c-2.6 1.4-5.6 3-8.8 3a12 12 0 0 1-7.5-2.9c-1-.7-1.7-1.4-2.2-2-1-.7-.9-1.8-.5-1.7.7 0 .8 1 1.2 1.3l2.1 1.9a11 11 0 0 0 6.9 2.7A19 19 0 0 0 62 42l3.8-2.7c.9-.7.9-1.5 1.6-1.4zM46.7 20.7h-.2c-1 0-1.7.5-2.4 1.2-.8.8-1.3 1.7-1.7 3-.4 1-.5 2.2-.5 3.4v.4c.1 1.5.4 2.7 1 3.9a7 7 0 0 0 1.5 2.4l.8-.6 1-.8-.1-.1c-.4-.4-.7-.8-1-1.5a6.3 6.3 0 0 1-.4-4c.2-.7.4-1.2.7-1.6.4-.4.7-.6 1.1-.6h.2c.3 0 .7.1 1 .4.4.4.7.8 1 1.4a6.5 6.5 0 0 1 .5 3.5A9.9 9.9 0 0 1 52 30v-1.8a9.8 9.8 0 0 0-1-3.9c-.5-1.2-1-2-2-2.7-.7-.6-1.4-.9-2.3-.9zM64 19.4h-.1c-1.3 0-2.4.4-3.5 1.2a8 8 0 0 0-2.5 3.3 9.3 9.3 0 0 0-.9 4v.6l.1 1.3 3.6 1.2-.1-1.4c0-1 .2-1.7.5-2.5s.7-1.3 1.2-1.8a2.3 2.3 0 0 1 1.6-.6c.6 0 1 .3 1.6.7.5.5.8 1 1 1.9.3.7.4 1.5.4 2.3v.2c0 .9-.2 1.6-.5 2.4-.2.5-.8 1-1 1.3l1.2.4a41.4 41.4 0 0 1 2.2 1l1.3-2.2a10.5 10.5 0 0 0 .8-4.6c0-1.6-.3-3-1-4.3a7.8 7.8 0 0 0-2.5-3.3 5.6 5.6 0 0 0-3.4-1.1zM57.9 33c.3.2.9.4.8.8 0 .3-.5.4-.8.4-.3 0-.5-.3-.8-.5-.3-.1-.8 0-1-.4l.2-.3c.5-.3 1-.2 1.6 0zm-5.2 0c.1 0 .3.2.2.3 0 .3-.6.3-1 .4-.2.2-.4.5-.8.5-.3 0-.7-.1-.8-.4 0-.4.6-.6 1-.8.4-.2 1-.3 1.4 0z"/></svg>