<svg xmlns="http://www.w3.org/2000/svg" viewBox="0 0 140 140"><path d="M73.6.2c28.4 0 44.5.5 55.2 11.1 10.7 10.7 11 27 11 55.8v5.5c0 28.8-.3 45-11 55.8-10.8 10.7-27.2 11-56 11h-5.5c-29 0-45.3-.3-56-11C.5 117.8 0 101.7 0 73.4v-7.1C0 38 .5 22 11.1 11.3 22 .7 38 .3 66.4.3zM32.8 33a52 52 0 0 0 0 73.8 52.4 52.4 0 0 0 74 0 52 52 0 0 0 0-73.8 52.4 52.4 0 0 0-74 0zm18.5 15.3l7.3 12.5 5.2 9c2.6 4.3 6.4 6.7 11.5 7a14 14 0 0 0 14.6-12.3l.1-1.4c0-2.5-.4-4.6-1.4-6.5a8.7 8.7 0 1 1 15 .4l-25.8 45a8.6 8.6 0 0 1-7.2 4.7 8.3 8.3 0 0 1-8.2-4.3L46.2 74l-10-17.2a8.7 8.7 0 0 1 7.2-13.1 8.3 8.3 0 0 1 8 4.5z"/></svg>