<svg xmlns="http://www.w3.org/2000/svg" viewBox="0 0 172 140"><path d="M144.4 3.2a95 95 0 0 1-.5 134.6c-2.9 3-7.7 3-10.6 0a7.5 7.5 0 0 1 0-10.6 80 80 0 0 0 .5-113.4c-3-3-3-7.7 0-10.6 3-3 7.7-3 10.6 0zm-22 17.2a70 70 0 0 1 0 99.8c-3 3-7.7 2.9-10.6 0-3-3-3-7.8 0-10.7a55 55 0 0 0 0-78.4c-2.9-3-3-7.7 0-10.6 3-3 7.7-3 10.6-.1zm-51.2 5.5a6 6 0 0 1 1 3.3v82.6a6 6 0 0 1-9.4 5L27.1 93H5a8 8 0 0 1-8-8V56a8 8 0 0 1 8-8h22l35.8-23.8a6 6 0 0 1 8.4 1.7zm19.4 12c3-3 7.7-2.9 10.6 0a45 45 0 0 1-.2 63.7c-3 3-7.7 3-10.6 0-3-3-3-7.7 0-10.6a30 30 0 0 0 .1-42.5c-2.9-3-2.8-7.7.1-10.6z"/></svg>