<svg xmlns="http://www.w3.org/2000/svg" viewBox="0 0 119 141"><path d="M118.6 54.3c0-4.7-4-8.6-8.7-8.6a8.7 8.7 0 0 0-8.6 8.6v36c0 4.8 3.9 8.7 8.6 8.7 4.8 0 8.7-3.9 8.7-8.6v-36zm-101 0c0-4.7-4-8.6-8.7-8.6a8.7 8.7 0 0 0-8.6 8.6v36c0 4.8 3.9 8.7 8.6 8.7 4.8 0 8.7-3.9 8.7-8.6v-36zm60.7-41.2l6.1-11c.4-.7.2-1.4-.4-1.7l-.6-.2c-.4 0-.9.2-1 .6L76 12a41.1 41.1 0 0 0-33.4 0L36.5.8c-.3-.5-1-.8-1.6-.4-.6.3-.8 1-.5 1.6l6.1 11a35.2 35.2 0 0 0-19.7 31H98c0-13.2-8-24.8-19.7-31zM41.6 30a3.2 3.2 0 1 1 0-6.5 3.2 3.2 0 0 1 0 6.5zm35.6 0a3.2 3.2 0 1 1 0-6.5 3.2 3.2 0 0 1 0 6.5zM20.8 47v56c0 5.2 4.2 9.4 9.3 9.4h6.2v19c0 4.8 4 8.7 8.7 8.7 4.7 0 8.6-3.9 8.6-8.6v-19.1h11.6v19c0 4.8 3.9 8.7 8.6 8.7 4.8 0 8.7-3.9 8.7-8.6v-19.1h6.2c5.2 0 9.3-4.2 9.3-9.4V47H20.8z"/></svg>