<svg xmlns="http://www.w3.org/2000/svg" viewBox="0 0 140 140"><path fill-rule="evenodd" d="M70 .2a8.5 8.5 0 0 1 6.5 3.2l18.3 18.3a8.5 8.5 0 1 1-12 12L78 29v33h33l-5.3-5.2a8.5 8.5 0 0 1-.2-11.8l.2-.2a8.5 8.5 0 0 1 11.9-.2l.2.2L136 63a8.6 8.6 0 0 1 3.2 6.5v.4a8.5 8.5 0 0 1-3.2 6.6l-18.3 18.3a8.5 8.5 0 1 1-12-12l4.8-4.9H78v32.6l4.8-4.8a8.5 8.5 0 0 1 11.8-.2l.2.2a8.5 8.5 0 0 1 .2 11.8l-.2.2L76.5 136a8.6 8.6 0 0 1-6.2 3.2h-.7a8.5 8.5 0 0 1-6.3-3l-.3-.2-18.3-18.3-.2-.2c-3-3.3-3-8.4 0-11.6l.2-.2.2-.2a8.5 8.5 0 0 1 11.7 0l.2.2 5.2 5.2v-33H29l4.8 4.8a8.5 8.5 0 0 1 .2 11.9l-.2.2A8.5 8.5 0 0 1 22 95l-.2-.2L3.5 76.5a8.6 8.6 0 0 1-3.2-6.3v-.7a8.5 8.5 0 0 1 3-6.3l.2-.2 18.3-18.3.2-.2a8.4 8.4 0 0 1 11.6 0l.2.2.2.2a8.4 8.4 0 0 1 0 11.6l-.2.2-5.2 5.2H62V28.5l-5.2 5.3a8.5 8.5 0 0 1-11.9.2l-.2-.2a8.5 8.5 0 0 1-.2-11.9l.2-.2L63 3.4A8.6 8.6 0 0 1 69.6.2h.4z"/></svg>