<svg xmlns="http://www.w3.org/2000/svg" viewBox="0 0 120 140"><path d="M40 20h40V10a10 10 0 1 1 20 0v10h8a12 12 0 0 1 12 12v14a4 4 0 0 1-4 4H4a4 4 0 0 1-4-4V32a12 12 0 0 1 12-12h8V10a10 10 0 1 1 20 0v10zM4 60h112a4 4 0 0 1 4 4v64a12 12 0 0 1-12 12H12a12 12 0 0 1-12-12V64a4 4 0 0 1 4-4zm15 15a4 4 0 0 0-4 4v12a4 4 0 0 0 4 4h12a4 4 0 0 0 4-4V79a4 4 0 0 0-4-4H19zm35 0a4 4 0 0 0-4 4v12a4 4 0 0 0 4 4h12a4 4 0 0 0 4-4V79a4 4 0 0 0-4-4H54zm35 0a4 4 0 0 0-4 4v12a4 4 0 0 0 4 4h12a4 4 0 0 0 4-4V79a4 4 0 0 0-4-4H89zm-70 30a4 4 0 0 0-4 4v12a4 4 0 0 0 4 4h12a4 4 0 0 0 4-4v-12a4 4 0 0 0-4-4H19zm35 0a4 4 0 0 0-4 4v12a4 4 0 0 0 4 4h12a4 4 0 0 0 4-4v-12a4 4 0 0 0-4-4H54zm35 0a4 4 0 0 0-4 4v12a4 4 0 0 0 4 4h12a4 4 0 0 0 4-4v-12a4 4 0 0 0-4-4H89z"/></svg>