<svg xmlns="http://www.w3.org/2000/svg" viewBox="0 0 120 140"><path d="M40 20h40V10a10 10 0 1120 0v10h8a12 12 0 0112 12v14a4 4 0 01-4 4H4a4 4 0 01-4-4V32a12 12 0 0112-12h8V10a10 10 0 1120 0v10zM4 58h112a4 4 0 014 4v66a12 12 0 01-12 12H12a12 12 0 01-12-12V62a4 4 0 014-4zm15 16a4 4 0 00-4 4v12.4a4 4 0 004 4h12a4 4 0 004-4V78a4 4 0 00-4-4H19zm35 0a4 4 0 00-4 4v12.4a4 4 0 004 4h12a4 4 0 004-4V78a4 4 0 00-4-4H54zm35 0a4 4 0 00-4 4v12.4a4 4 0 004 4h12a4 4 0 004-4V78a4 4 0 00-4-4H89zm-70 30.6a4 4 0 00-4 4V121a4 4 0 004 4h12a4 4 0 004-4v-12.4a4 4 0 00-4-4H19zm35 0a4 4 0 00-4 4V121a4 4 0 004 4h12a4 4 0 004-4v-12.4a4 4 0 00-4-4H54zm35 0a4 4 0 00-4 4V121a4 4 0 004 4h12a4 4 0 004-4v-12.4a4 4 0 00-4-4H89z"/></svg>