<svg xmlns="http://www.w3.org/2000/svg" viewBox="0 0 120 140"><path d="M100 20h9.7c5.7 0 10.3 5.4 10.3 12v96c0 6.6-4.6 12-10.3 12H10.3C4.6 140 0 134.6 0 128V32c0-6.6 4.6-12 10.3-12H20V10a10 10 0 1120 0v10h40V10a10 10 0 1120 0v10zM12 46v78a4 4 0 004 4h88a4 4 0 004-4V46H12zm12 16h12a4 4 0 014 4v12a4 4 0 01-4 4H24a4 4 0 01-4-4V66a4 4 0 014-4zm30 0h12a4 4 0 014 4v12a4 4 0 01-4 4H54a4 4 0 01-4-4V66a4 4 0 014-4zm30 0h12a4 4 0 014 4v12a4 4 0 01-4 4H84a4 4 0 01-4-4V66a4 4 0 014-4zM24 92h12a4 4 0 014 4v12a4 4 0 01-4 4H24a4 4 0 01-4-4V96a4 4 0 014-4z"/></svg>