<svg xmlns="http://www.w3.org/2000/svg" viewBox="0 0 140 140"><path fill-rule="evenodd" d="M20.2 55.3a45 45 0 014.3-10L17 37.7a8 8 0 010-11.3l10-10a8 8 0 0111.2 0l7.6 7.6a58 58 0 0110-4V9.3a8 8 0 018-8h14a8 8 0 018 8v11c3.3 1 6.6 2.3 9.7 4l7.7-7.7a8 8 0 0111.3 0l10 9.9a8 8 0 010 11.3l-7.8 7.7c1.7 3.1 3 6.4 4 9.8h11a8 8 0 018 8v14a8 8 0 01-8 8h-10.8c-1 3.4-2.4 6.7-4 9.9l7.5 7.6a8 8 0 010 11.3l-9.9 9.9a8 8 0 01-11.3 0l-7.4-7.5a52.2 52.2 0 01-10 4.3v10.4a8 8 0 01-8 8h-14a8 8 0 01-8-8V121c-3.6-1-7-2.5-10.3-4.2l-7.3 7.3a8 8 0 01-11.3 0L17 114a8 8 0 010-11.2l7.3-7.3a52.2 52.2 0 01-4.2-10.2H9.8a8 8 0 01-8-8v-14a8 8 0 018-8h10.4zM70 90a20 20 0 100-40 20 20 0 000 40z"/></svg>