<svg xmlns="http://www.w3.org/2000/svg" viewBox="0 0 140 135"><path d="M5 103c25.4-41.4 58.6-42.6 97.6-23.6 10.9 5.3 23 11 29 13.8 2.2 1 3.2 3.7 2.2 5.9L120 130.4a4.5 4.5 0 01-6 2.2L85.4 119c-20.8-10-32.3-12.3-43.8 6.7l-4.3 7.2a4.5 4.5 0 01-6.1 1.5L2 116.4c-2-1.2-2.7-4-1.5-6l4.5-7.3zm130-71c-25.4 41.4-58.6 42.7-97.7 23.7-10.9-5.3-23-11-29-13.8A4.5 4.5 0 016.1 36L19.9 4.7a4.5 4.5 0 016-2.2L54.5 16c20.8 10 32.3 12.3 43.8-6.7l4.3-7.2a4.5 4.5 0 016.3-1.4l29 17.8c2 1.3 2.7 4 1.5 6.1l-4.5 7.3z"/></svg>