<svg xmlns="http://www.w3.org/2000/svg" viewBox="0 0 126 140"><path d="M40.4 87.2a18.5 18.5 0 110-37 18.5 18.5 0 010 37zm44.5 0a18.5 18.5 0 110-37 18.5 18.5 0 010 37zm-18.5.7l3.8 6.6L74 101c1.8 3.1.3 5.7-3.3 5.7H55.5c-3.7 0-5.1-2.6-3.3-5.7l3.8-6.6 3.8-6.6c1.8-3.1 4.7-3.1 6.6 0zM46 117.8c3 0 5.6 2.5 5.6 5.5v11.1a5.6 5.6 0 01-11.2 0v-11c0-3.1 2.5-5.6 5.6-5.6zm16.6-.3c3 0 5.5 2.5 5.5 5.6v11a5.6 5.6 0 11-11.1 0v-11c0-3 2.5-5.6 5.6-5.6zm17 0c3 0 5.5 2.5 5.5 5.6v11a5.6 5.6 0 01-11.1 0v-11c0-3 2.5-5.6 5.6-5.6zM62.8 0c16.5.2 32.3 7.1 44 18.8a63.5 63.5 0 0118.9 44.7 65 65 0 01-1.8 21.2 56.5 56.5 0 01-17.4 23c-1.1 1-2 3.2-2 4.7l.5 21.8a5.6 5.6 0 01-11.2 0v-25l.1-1c.1-1.1.5-2.2 1.3-3.1 10-9 16-16.8 18-23.5a57.9 57.9 0 001.3-18.1 52.3 52.3 0 00-51.7-52.3 52.3 52.3 0 00-51.5 52.3c-.4 8 0 14 1.3 18 2 6.8 8 14.7 18 23.6.8.9 1.2 2 1.3 3v26a5.6 5.6 0 01-11.1 0l.5-21.7c0-1.5-1-3.6-2-4.6a56.5 56.5 0 01-17.4-23A64.2 64.2 0 010 63.4c0-16.8 7-32.8 18.9-44.7A63.1 63.1 0 0162.8 0z"/></svg>