<svg xmlns="http://www.w3.org/2000/svg" viewBox="0 0 140 125"><path fill-rule="evenodd" d="M64.6 64.8c2.1-4.7-4-12-13.5-16.2-9.6-4.3-19.1-4-21.2.7-2 4.7 4 12 13.6 16.2 9.5 4.3 19 4 21.1-.7zM105.4 81h4.3c2 0 3.4 1.6 3 3.6-3.2 14.7-20.9 28.5-42 28.5-21.2 0-38.9-13.8-42-28.5-.4-2 .9-3.6 3-3.6H36c2 7 4 11.3 6.2 13 1.6 1.3 3.1.7 3.3-1.4.5-3.7 1.4-7.5 3-11.6h44.3c1.6 4.1 2.6 8.1 3 12 .2 2 1.7 2.7 3.3 1.4 2.3-1.8 4.4-6.2 6.3-13.4zM16.7 44.7L1.7 9.3C-1.7 1.7 1.7-1.5 9.1 2l31.5 15.1a57.5 57.5 0 0159 0l31-15.2c7.3-3.6 10.7-.4 7.6 7.2l-14.8 35.5a57.9 57.9 0 11-106.8.2zm57.7 20.1c-2-4.7 4-12 13.6-16.2 9.6-4.3 19-4 21.1.7 2.1 4.7-4 12-13.5 16.2-9.6 4.3-19 4-21.2-.7z"/></svg>