<svg xmlns="http://www.w3.org/2000/svg" viewBox="0 0 122 140"><path d="M48.4 58.7c4 0 7.2 3.5 7 7.8 0 4.3-3 7.8-7 7.8s-7.1-3.5-7.1-7.8 3.1-7.8 7-7.8zm25.4 0c4 0 7.1 3.5 7.1 7.8s-3.1 7.8-7 7.8c-4 0-7.2-3.5-7.2-7.8s3.2-7.8 7.1-7.8zm34-58.7c7.8 0 14.2 6.4 14.2 14.4V140l-15-13.3-8.4-7.8-9-8.4 3.7 13h-79C6.4 123.5 0 117 0 109V14.4C0 6.4 6.4 0 14.3 0h93.4zm-27 91.4c15.4-.5 21.3-10.6 21.3-10.6a94 94 0 00-10-40.8c-10-7.6-19.6-7.4-19.6-7.4l-1 1.1a46.3 46.3 0 0117.4 9 56.7 56.7 0 00-35-6.7l-1.3.2a52 52 0 00-15.8 4.4l-4.1 2s5.8-5.5 18.3-9.1l-.7-.9s-9.5-.2-19.6 7.4c0 0-10 18.2-10 40.8 0 0 5.9 10.1 21.3 10.6l4.6-5.8a21.6 21.6 0 01-12.2-8.3l2 1.2.3.3.6.3a58.3 58.3 0 0015.3 5.4 48.6 48.6 0 0036.2-7s-3.5 5.7-12.6 8.3c2 2.6 4.6 5.6 4.6 5.6z"/></svg>