<svg xmlns="http://www.w3.org/2000/svg" viewBox="0 0 140 141"><path fill-rule="evenodd" d="M70 1a70 70 0 1 0 0 140A70 70 0 0 0 70 1zm46.2 32.3a59.5 59.5 0 0 1 13.6 37.2c-2-.4-21.8-4.4-41.7-2l-1.2-3a178 178 0 0 0-4-8.7 80 80 0 0 0 33.3-23.5zM70 11.3c15.2 0 29 5.7 39.6 15A67.8 67.8 0 0 1 78.3 48C68.5 30 57.6 15.2 56 13c4.4-1 9.1-1.6 14-1.6zM44.6 17c1.6 2.2 12.2 17 22.1 34.6-27.9 7.4-52.6 7.3-55.2 7.3a60 60 0 0 1 33-41.9zM10.2 71.1v-1.8c2.6 0 31.6.4 61.4-8.5l4.9 10.1-2.4.7A95 95 0 0 0 25.5 111a59.7 59.7 0 0 1-15.3-40zM70 130.8a59.4 59.4 0 0 1-36.7-12.6c1-2.2 13.2-25.6 47-37.3l.3-.2A242.6 242.6 0 0 1 93.4 126a58.8 58.8 0 0 1-23.4 4.8zm33.3-10.2c-.6-3.7-3.8-21.1-11.6-42.6a86 86 0 0 1 37.2 2.6 59.3 59.3 0 0 1-25.6 40z"/></svg>