<svg xmlns="http://www.w3.org/2000/svg" viewBox="0 0 140 140"><path d="M116.8 102.6l-1-1c-4-4.4-1.3-13.2 0-14.8 1.5-1.5 1.4-14.1-1.3-14.1-2.8 0-1.3 1.6-11.2 0-10.5-7.3-5.5-17.2-5.5-19.8 0-2.6 18.9-10 10.3-10-8.7 0-10-.5-11.4-2.9-1.4-2.4 1.4-8.7 2.3-10 .9-1.3-2.3-3.8-2.3-5.3 0-.6.7-2 2.1-3.9a56.6 56.6 0 0 0-17.7-6.7 59.7 59.7 0 0 1-15.4 12.4c-2.9 1.6-11.4 6.7-7 12.6 4.5 5.9 2.8 10.9 0 14.8-2.8 3.9-4.4-2.1-4.4-3.9 0-1.8-11.1-6.8-19.6 0-5.6 4.5-5.6 8.3 0 11.4.5.5 1.6-.3 3.3-2.6 3.4-3.8 6.4-1.9 9 5.6-1.4 4.8-.8 7.2 1.7 7.2 2.6 0 5 .4 7.4 1.2 0 2.6 2.2 4 6.5 4 6.5 0 5.2.3 12.8 4.9C91 85.7 92.4 95 91 96c-1 .7-2.1 2.5-3.3 5.4-2 3.8-4 5.8-6 5.8-3.2 0-5.4 5.3-7.7 8.8-2.3 3.5-6.8 3.4-13.9 5.9-4.6 0-6-4-4-11.9 1-2.3-1-4.3-6-6-10-7-2.4-17.3 1.2-24-8.6-11.3-13.9-8.4-23.7-12.7-5.9-2.5-10-7-12.2-13.3a57 57 0 0 0 101.5 48.6zM70 140A70 70 0 1 1 70 0a70 70 0 0 1 0 140z"/></svg>