<svg xmlns="http://www.w3.org/2000/svg" viewBox="0 0 131 140"><path d="M40.7 83.1c0 3.4.5 6.5 1.6 9.2A26 26 0 0053 105a48.2 48.2 0 0025.3 6.7 58.8 58.8 0 0020.1-3.2 168.3 168.3 0 0018.6-8.3v29.6a105.3 105.3 0 01-32 9.6c-3.7.4-7.5.6-11.4.6a63.3 63.3 0 01-29-7 57.6 57.6 0 01-20.9-19.2 53 53 0 01-8-28.5 56.6 56.6 0 019.2-30.9 57.3 57.3 0 0125.2-20c-3 3-5.2 6.4-6.8 10.4-1.6 4-2.7 8-3.1 12H90c0-5-.5-9.4-1.5-13.2a20.7 20.7 0 00-13.8-15c-3.6-1.2-8-1.8-13-1.8-6 0-12 .9-18.1 2.7a76 76 0 00-32.1 18.8C6.9 52.6 3 57.3 0 62.4a81.7 81.7 0 0110.9-32 67.7 67.7 0 0123-22.2 65.3 65.3 0 0185.3 19.4 64 64 0 018.2 17.9 72.6 72.6 0 012.8 20.2v17.4H40.7z"/></svg>