<svg xmlns="http://www.w3.org/2000/svg" viewBox="0 0 189 140"><path d="M31.4 112.5C12 99.5 0 82.5 0 70 0 46.6 42.3 9.2 94.5 9.2c12.2 0 23.9 2 34.6 5.5l11.5-11.5a10.7 10.7 0 0 1 15.3 0c4.2 4.2 4.2 11 0 15.2L37.6 136.8a10.7 10.7 0 0 1-15.3 0c-4.2-4.2-4.2-11 0-15.2l9-9.1zm84.5-84.6A96.4 96.4 0 0 0 37.1 44C24 53.4 16.2 64.5 16.2 70c0 5.7 7.9 17 21 26.8l5.9 4 19.2-19.3a33.7 33.7 0 0 1 42.4-42.3l11.2-11.3zM66.3 128.4l13.6-13.7a97.9 97.9 0 0 0 71.8-18c13.2-9.6 21.1-21 21.1-26.7 0-5.5-7.7-16.6-21-26l-.7-.5 11.6-11.6C179 43.9 189 58.6 189 70c0 23.4-42.3 62.1-94.5 62.1-9.8 0-19.3-1.4-28.2-3.7zm23.5-23.6L128 66.7a33.8 33.8 0 0 1-38 38.1z"/></svg>