<svg xmlns="http://www.w3.org/2000/svg" viewBox="0 0 140 106"><path d="M23.2 84.4C9 74.8 0 62.3 0 53 0 35.7 31.3 8 70 8a84 84 0 0 1 25.6 4l8.6-8.5a8 8 0 0 1 11.3 11.3l-87.7 87.7a8 8 0 0 1-11.3-11.3l6.7-6.8zM86 21.8a71.4 71.4 0 0 0-58.4 12C17.7 40.7 12 48.7 12 53c0 4.2 5.8 12.6 15.6 19.8l4.3 3 14.3-14.3a25 25 0 0 1 31.3-31.3l8.4-8.4zM49 96.2l10-10a72.5 72.5 0 0 0 53.2-13.3C122.3 65.5 128 57.1 128 53c0-4.1-5.7-12.3-15.5-19.3a70 70 0 0 0-.5-.3l8.6-8.6c12 8.9 19.4 19.8 19.4 28.2 0 17.3-31.3 46-70 46-7.3 0-14.3-1-20.9-2.8zm17.4-17.4l28.3-28.3.2 3.5a25 25 0 0 1-28.5 24.8z"/></svg>