<svg xmlns="http://www.w3.org/2000/svg" viewBox="0 0 136 140"><path d="M135.2 64l-.3-2-1.4 1.6a60.8 60.8 0 0 0-11-28.2c-2.5-4-5.4-6.5-8.7-11.2a34.3 34.3 0 0 1-4.4-11.8c-.9 2.5-1.6 5-2 7.7-3.5-3.5-6.4-6-8.2-7.6C90.3 4.3 91.4 0 91.4 0S74.9 18.4 82 37.6A36.9 36.9 0 0 0 94.3 54c7 5.7 14.4 10.2 18.3 21.6-3.2-6-8-11-13.8-14.5a31 31 0 0 1 2.6 13.1 31.3 31.3 0 0 1-38.2 30.5c-2.7-.5-5.3-1.4-7.7-2.6a31.5 31.5 0 0 1-9.3-8.6l.5.1c1.3.5 2.6.8 4 1 5.2 1.2 10.8.5 15.7-1.8 5-2.7 7.9-4.8 10.3-4 2.4.8 4.3-1.5 2.6-3.9A13 13 0 0 0 66.8 80c-5 .7-9.5 4.3-16 .8l-1.2-.7c-.4-.2 1.4.4 1 .1-1.4-.7-2.8-1.5-4-2.4l.8.2a15.7 15.7 0 0 1-4.2-4.3 7.6 7.6 0 0 1-.3-6.8 6 6 0 0 1 2.6-2.5l1.4.8-.6-1.1h.2c.7.3 2.3 1 3.2 1.6.6.3 1 .8 1.5 1.3 0 0 .3-.1 0-.8a4 4 0 0 0-1.5-1.8h.1l1.9 1.1c.5-1.2.8-2.5.7-3.9 0-.7 0-1.5-.3-2.2-.2-.4.1-.6.6-.1-.1-.4-.2-.8-.4-1v-.1l.3-.4 1-.8c2-1.3 4.2-2.4 6.4-3.3l3.6-1.6c.5-.3 1-.6 1.3-1a8.6 8.6 0 0 0 3-5.7v-.5c-.3-1-2-1.7-10.9-2.6a7.8 7.8 0 0 1-6.3-6v.1c1.7-4.5 4.7-8.3 8.7-10.9.2-.2-1 0-.7-.1l2.3-1c.4-.2-1.7-1-3.5-.8a8 8 0 0 0-3.4.8c.5-.4 1.8-.9 1.5-.9-2.4.5-4.7 1.4-6.8 2.6l.1-.6c-1.6.7-3 1.8-4.2 3.2V28c-.7.5-1.4 1.2-2 2-5-2-10.3-2.4-15.5-1.4-1-.9-2-2-2.7-3l-.2-.2a24.5 24.5 0 0 1-1.8-3.2c-.1 0-.2.5-.3.4-1-2.4-1.3-5-1.2-7.5h-.1a8.3 8.3 0 0 0-3.2 4.2l-.6 1.2v-.1l.2-.9-.1.1a10.3 10.3 0 0 0-1.8 3.3v-.7.2A41.7 41.7 0 0 0 11.6 38v.1A29 29 0 0 0 8 43C4.6 48.8 2 55 .4 61.6c1.2-2.5 2.5-4.9 4-7.1a69.4 69.4 0 0 0-4.4 24c.5-2.4 1.2-4.8 2-7.1a66 66 0 0 0 31.6 58 57.1 57.1 0 0 0 17.3 8l-.6-.3c6.4 2 13 2.9 19.7 2.9 23.7 0 31.5-9 32.2-10a12 12 0 0 0 2.8-3.7l1.4-.6.3-.1.5-.3c3.6-1.6 7-3.7 10-6.2 4.6-3.3 8-8.1 9.3-13.6.9-2 1-4.2.2-6.3l.7-1.2c5-8.2 8-17.5 8.4-27.1V70c0-2-.2-4.1-.6-6.1z"/></svg>