<svg xmlns="http://www.w3.org/2000/svg" viewBox="0 0 143 140"><path fill-rule="evenodd" d="M71.5 0A71.5 71.5 0 0 0 49 139.4c3.6.6 5-1.5 5-3.4l-.2-13.3c-18 3.3-22.6-4.4-24-8.4-.8-2-4.3-8.4-7.3-10.1-2.5-1.4-6.1-4.7-.1-4.8 5.6 0 9.6 5.2 11 7.4 6.4 10.8 16.7 7.7 20.8 5.9a15 15 0 0 1 4.6-9.6c-16-1.8-32.6-8-32.6-35.3a28 28 0 0 1 7.3-19.2c-.7-1.8-3.2-9.2.8-19 0 0 6-1.9 19.6 7.3a66.4 66.4 0 0 1 35.8 0c13.7-9.3 19.7-7.3 19.7-7.3a26 26 0 0 1 .7 19c4.5 5 7.3 11.3 7.3 19.2 0 27.4-16.7 33.5-32.6 35.3 2.6 2.2 4.8 6.5 4.8 13.2V136c0 1.9 1.3 4.1 4.8 3.4A71.6 71.6 0 0 0 71.5 0z"/></svg>