<svg xmlns="http://www.w3.org/2000/svg" viewBox="0 0 140 137"><path fill-rule="evenodd" d="M70 0a70 70 0 00-22.1 136.4c3.5.6 4.8-1.5 4.8-3.3l-.1-13c-17.6 3.2-22.2-4.3-23.6-8.3-.7-2-4.1-8.2-7.1-9.9-2.5-1.3-6-4.5-.1-4.6 5.5 0 9.4 5 10.7 7.2C39 115 49 112 53 110.3c.6-4.6 2.5-7.7 4.5-9.4C41.8 99 25.6 93 25.6 66.3c0-7.6 2.7-13.9 7.1-18.8-.7-1.7-3.1-9 .7-18.5 0 0 5.9-1.9 19.3 7.1a65 65 0 0135 0c13.4-9 19.2-7.1 19.2-7.1 3.9 9.6 1.4 16.8.7 18.5a27 27 0 017.2 18.8c0 26.9-16.4 32.8-32 34.6 2.6 2.2 4.8 6.4 4.8 13l-.1 19.2c0 1.8 1.3 4 4.8 3.3A70.1 70.1 0 0070 0z"/></svg>