<svg xmlns="http://www.w3.org/2000/svg" viewBox="0 0 140 129"><path d="M139.6 72.3l-7.4-22.5-.1-.6L117.3 4c-.8-2.4-3-4-5.6-4a5.8 5.8 0 0 0-5.5 4l-14 43H47.9L33.8 4c-.8-2.4-3-4-5.5-4a5.9 5.9 0 0 0-5.6 4L7.9 49.3l-7.5 23a8.3 8.3 0 0 0 3 9.3L68 128.4c1.2.8 2.8.8 4 0l64.5-46.8a8 8 0 0 0 3-9.3M43 53.7l18 55.2-43.2-55.2M79 108.9l17.2-53 .8-2.2h25.2l-39 49.9m28.6-95.3L124.4 47H99.1m-9 6.6L77.4 92l-7.5 23-20-61.4M28.2 8.3L41 47H15.6M7.3 76.3c-.6-.5-.8-1.3-.6-2l5.6-17 40.7 52m79.7-33l-45.7 33 .2-.2 40.6-51.8 5.5 17a2 2 0 0 1-.6 2"/></svg>