<svg xmlns="http://www.w3.org/2000/svg" viewBox="0 0 140 140"><path d="M44 99.5h21V75H40.1c.4 9 1.8 17.2 4 24.5zm3.8 10c4.6 10 10.7 17.1 17.2 19.6v-19.6H47.8zm48.1-10c2.2-7.3 3.6-15.6 4-24.5H75v24.5h21zm-3.7 10H75v19.6c6.5-2.5 12.6-9.5 17.2-19.6zm-74.5-10h16c-2-7.5-3.2-15.8-3.6-24.5H10.2c.7 8.9 3.4 17.2 7.5 24.5zm7.1 10a60.2 60.2 0 0 0 20.1 15c-3-4.3-5.7-9.3-8-15H25zm97.5-10a59.6 59.6 0 0 0 7.5-24.5h-19.9c-.4 8.7-1.6 17-3.6 24.5h16zm-7.1 10H103a70.3 70.3 0 0 1-8 15 60.2 60.2 0 0 0 20.2-15zM44 40.5c-2.2 7.3-3.6 15.6-4 24.5h25V40.5H44zm3.7-10H65V10.9c-6.5 2.5-12.6 9.5-17.2 19.6zm48.1 10H75V65h24.9c-.4-9-1.8-17.2-4-24.5zm-3.7-10c-4.6-10-10.7-17.1-17.2-19.6v19.6h17.2zm-74.5 10A59.6 59.6 0 0 0 10.2 65h19.9c.4-8.7 1.6-17 3.6-24.5h-16zm7.1-10H37a70.3 70.3 0 0 1 8-15 60.2 60.2 0 0 0-20.2 15zm97.5 10h-16c2 7.5 3.2 15.8 3.6 24.5h19.9a59.6 59.6 0 0 0-7.5-24.5zm-7.1-10a60.2 60.2 0 0 0-20.1-15c3 4.3 5.7 9.3 8 15h12zM70 140A70 70 0 1 1 70 0a70 70 0 0 1 0 140z"/></svg>