<svg xmlns="http://www.w3.org/2000/svg" viewBox="0 0 140 125"><path fill-rule="evenodd" d="M10 0h20a10 10 0 0 1 10 10v15a10 10 0 0 1-10 10H10A10 10 0 0 1 0 25V10A10 10 0 0 1 10 0zm50 0h20a10 10 0 0 1 10 10v15a10 10 0 0 1-10 10H60a10 10 0 0 1-10-10V10A10 10 0 0 1 60 0zm50 0h20a10 10 0 0 1 10 10v15a10 10 0 0 1-10 10h-20a10 10 0 0 1-10-10V10a10 10 0 0 1 10-10zM10 90h20a10 10 0 0 1 10 10v15a10 10 0 0 1-10 10H10a10 10 0 0 1-10-10v-15a10 10 0 0 1 10-10zm50 0h20a10 10 0 0 1 10 10v15a10 10 0 0 1-10 10H60a10 10 0 0 1-10-10v-15a10 10 0 0 1 10-10zm50 0h20a10 10 0 0 1 10 10v15a10 10 0 0 1-10 10h-20a10 10 0 0 1-10-10v-15a10 10 0 0 1 10-10zM10 45h20a10 10 0 0 1 10 10v15a10 10 0 0 1-10 10H10A10 10 0 0 1 0 70V55a10 10 0 0 1 10-10zm50 0h20a10 10 0 0 1 10 10v15a10 10 0 0 1-10 10H60a10 10 0 0 1-10-10V55a10 10 0 0 1 10-10zm50 0h20a10 10 0 0 1 10 10v15a10 10 0 0 1-10 10h-20a10 10 0 0 1-10-10V55a10 10 0 0 1 10-10z"/></svg>