<svg xmlns="http://www.w3.org/2000/svg" viewBox="0 0 140 140"><path fill-rule="evenodd" d="M70 0c19 0 21.4.1 28.8.5 7.5.3 12.6 1.5 17 3.2a35.6 35.6 0 0120.4 20.5c1.8 4.4 3 9.5 3.3 17 .4 7.4.5 9.8.5 28.8s-.1 21.4-.5 28.9a51.4 51.4 0 01-3.2 17 34.3 34.3 0 01-8 12.4 34.3 34.3 0 01-12.5 8c-4.4 1.8-9.5 3-17 3.3-7.4.3-9.8.4-28.8.4s-21.4 0-28.9-.4a51.4 51.4 0 01-17-3.3 34.3 34.3 0 01-12.4-8 34.3 34.3 0 01-8-12.4c-1.8-4.5-3-9.6-3.3-17C.1 91.4 0 89 0 70s0-21.4.4-28.8c.4-7.5 1.5-12.6 3.3-17A35.6 35.6 0 0124.1 3.8c4.5-1.8 9.6-3 17-3.3C48.6 0 51 0 70 0zm0 12.7c-18.7 0-21 0-28.3.4-6.8.3-10.5 1.4-13 2.4a21.7 21.7 0 00-8 5.2c-2.5 2.5-4 4.8-5.3 8-1 2.5-2 6.2-2.4 13-.3 7.4-.4 9.6-.4 28.3 0 18.7 0 21 .4 28.3.3 6.8 1.5 10.5 2.4 13 1.3 3.3 2.8 5.6 5.3 8 2.4 2.5 4.7 4 8 5.3 2.5 1 6.2 2 13 2.4 7.4.3 9.6.4 28.3.4 18.7 0 20.9 0 28.3-.4 6.8-.3 10.5-1.5 13-2.4 3.2-1.3 5.5-2.8 8-5.3 2.4-2.4 4-4.7 5.2-8 1-2.5 2.1-6.2 2.4-13 .4-7.4.4-9.6.4-28.3 0-18.7 0-20.9-.4-28.3a38.7 38.7 0 00-2.4-13 21.7 21.7 0 00-5.2-8c-2.5-2.4-4.8-4-8-5.2-2.5-1-6.2-2.1-13-2.4-7.4-.4-9.6-.4-28.3-.4zm0 80.6a23.3 23.3 0 100-46.6 23.3 23.3 0 000 46.6zm0-59.2a36 36 0 110 71.9 36 36 0 010-72zm45.7-1.4a8.4 8.4 0 11-16.8 0 8.4 8.4 0 0116.8 0z"/></svg>