<svg xmlns="http://www.w3.org/2000/svg" viewBox="0 0 142 140"><path d="M142 73c0-11.2-2.9-21.8-8-31C155.7-7 110.8.3 108.3.7 98.8 2.5 90 5.5 81.8 9.3l-3.6-.1A63.8 63.8 0 0 0 16 58.7c16-18 27.2-25.2 33.9-28l-3.2 2.8-1 1-2 2-1.2 1.2-1.7 1.7-1.2 1.3a159 159 0 0 0-9.3 10.8L29.2 53 28 54.4 26.9 56l-.9 1.1a198 198 0 0 0-8.5 12.6v.2l-1.6 2.5A205 205 0 0 0 3.6 97C-14.6 161.8 42 134.4 50 130.3a63.8 63.8 0 0 0 88.4-35.9h-33.6c-5 8.4-14.5 14-25.5 14-16 0-29-12.1-29-27.2h91.2c.3-2.7.5-5.4.5-8.2zm-11.9-62.8c5.5 3.7 10 9.5 2.3 29.2a64 64 0 0 0-31.1-26c5.9-2.8 20.5-8.8 28.8-3.2zm-116.8 120C8.8 125.4 8 114.3 17.9 94a64 64 0 0 0 27.8 34c-6.4 3.5-23.4 11.4-32.4 2.1zm36.8-66.4a28.1 28.1 0 0 1 28.8-26.3 28.1 28.1 0 0 1 28.9 26.3H50z"/></svg>