<svg xmlns="http://www.w3.org/2000/svg" viewBox="0 0 140 138"><path d="M140 72c0-11.1-2.9-21.5-7.9-30.5C153.5-7 109.2 0 106.7.6c-9.4 1.9-18 4.8-26 8.6L77 9a63 63 0 0 0-61.3 48.8C31.5 40.2 42.5 33 49.2 30.2L46 33l-1 1-2 2-1.2 1.1-1.7 1.8L39 40a156.7 156.7 0 0 0-9 10.6l-1.3 1.5-1 1.4-1.2 1.6-.8 1.1a201.2 201.2 0 0 0-8.4 12.4l-.1.2-1.5 2.4v.1a202 202 0 0 0-12.2 24c-17.9 64 38 37 45.8 33A63 63 0 0 0 136.4 93h-33a29 29 0 0 1-25.3 14c-15.9 0-28.7-12-28.7-26.8h90c.3-2.7.5-5.4.5-8.1zm-11.8-62c5.5 3.7 9.8 9.5 2.3 28.8a63.1 63.1 0 0 0-30.7-25.5c5.8-2.8 20.3-8.8 28.4-3.2zm-115 118.3c-4.5-4.6-5.3-15.6 4.5-35.7a62.7 62.7 0 0 0 27.4 33.5c-6.4 3.5-23 11.3-32 2.2zm36.2-65.4c.5-14.4 13-26 28.4-26 15.4 0 28 11.6 28.4 26H49.4z"/></svg>