<svg xmlns="http://www.w3.org/2000/svg" viewBox="0 0 140 137"><path d="M69.5 0c1.6 0 3.1.2 4.5 1l48.7 23.2a9.3 9.3 0 0 1 5 6.3l12 52.3c.7 2.7 0 5.6-1.7 7.8l-33.7 42A9.3 9.3 0 0 1 97 136H43a9.3 9.3 0 0 1-7.3-3.5L2 90.6a9.2 9.2 0 0 1-1.8-7.8l12-52.3c.7-2.8 2.5-5 5-6.3L66 .9c1.2-.5 2.4-.8 3.6-.9zm.5 17.8c-1.6 0-3 1.5-3 3.3v.8l.5 2.8c.2 2 .4 3.7.3 5.2-.1.6-.6 1.2-1 1.6v1.2a37.9 37.9 0 0 0-24.3 11.7l-1-.8c-.6.1-1.1.3-1.8-.1-1.3-.9-2.5-2.1-4-3.6-.6-.7-1-1.3-1.8-2l-.7-.5c-.6-.5-1.3-.8-2-.8-1 0-1.8.3-2.3 1-1 1.3-.7 3.2.7 4.3l.6.5c.9.7 1.6 1 2.4 1.5 1.8 1 3.2 2 4.4 3 .4.5.5 1.3.6 1.7l.9.8c-5 7.6-7.3 16.9-6 26.3l-1.2.4c-.3.4-.7 1-1.2 1.3-1.5.4-3.2.6-5.2.8-1 .1-1.8 0-2.8.2l-.8.2c-1.8.5-3 2-2.6 3.6.4 1.6 2 2.5 3.8 2.1h.1l.8-.2c1-.2 1.7-.6 2.6-1 1.9-.7 3.5-1.2 5-1.5.7 0 1.4.4 1.7.6L34 82c3 9 9 16.4 16.8 21l-.5 1.3c.2.5.4 1.2.2 1.6-.5 1.5-1.5 3-2.6 4.8l-1.6 2.3-.3.8c-.8 1.6-.2 3.5 1.2 4.1 1.4.7 3.2 0 4-1.6l.4-.8c.4-.9.5-1.7.8-2.6.8-2 1.2-4 2.3-5.3.3-.3.7-.4 1.2-.6l.7-1.2a37.6 37.6 0 0 0 26.9 0l.6 1.2c.5.2 1 .3 1.5 1 .8 1.3 1.3 2.9 2 4.8.3 1 .4 1.8.8 2.7l.4.7c.8 1.7 2.6 2.4 4 1.7 1.5-.7 2-2.5 1.3-4.1l-.4-.8c-.5-1-1-1.6-1.6-2.4-1-1.7-2-3.1-2.6-4.6-.2-.7 0-1.2.3-1.7-.2-.1-.4-.9-.5-1.2A38 38 0 0 0 106 82l1.2.2c.5-.3.9-.7 1.6-.6 1.6.2 3.2.8 5.1 1.5l2.6 1 .8.1c1.8.4 3.5-.5 3.9-2 .3-1.6-.8-3.2-2.5-3.6l-.9-.2c-1-.2-1.8-.2-2.8-.2-2-.3-3.7-.4-5.2-1-.6-.1-1-.9-1.2-1.2l-1.2-.3a37.7 37.7 0 0 0-6-26.3l1-.9c0-.5 0-1 .5-1.6 1.1-1.1 2.6-2 4.3-3.1l2.5-1.4.6-.5c1.4-1.1 1.7-3 .7-4.3-1-1.3-3-1.4-4.3-.3l-.7.5-1.9 2a21.7 21.7 0 0 1-4 3.6c-.5.4-1.3.2-1.7.2l-1.1.8a38.2 38.2 0 0 0-24.2-11.7v-1.3c-.4-.4-.9-.7-1-1.5-.1-1.5 0-3.2.3-5.2.2-1 .4-1.8.4-2.8V21c0-1.8-1.3-3.3-2.9-3.3zm-3.7 22.6l-.8 15.3a2.6 2.6 0 0 1-4.2 2L48.8 49a30 30 0 0 1 17.5-8.5zm7.4 0c6.6.9 12.7 3.9 17.4 8.5l-12.4 8.8a2.6 2.6 0 0 1-4.2-2l-.8-15.3zM44.2 54.6l11.5 10.2a2.6 2.6 0 0 1-1 4.5L40 73.7a30 30 0 0 1 4.2-19zm51.5 0a30.4 30.4 0 0 1 4.4 19l-14.8-4.3a2.6 2.6 0 0 1-1-4.5l11.4-10.2zm-28 11h4.6l3 3.7-1.1 4.5-4.2 2-4.2-2-1-4.5 2.9-3.7zm15 12.5h.6l15.2 2.6A30 30 0 0 1 86.3 96l-5.9-14.3a2.6 2.6 0 0 1 2.3-3.6zm-25.5 0a2.6 2.6 0 0 1 2.3 3.6v.1l-5.8 14a30.2 30.2 0 0 1-12-15l15-2.6h.5zm12.7 6.2l1.2.3c.5.2 1 .6 1.2 1l7.4 13.5a30.7 30.7 0 0 1-19.4 0l7.4-13.4a3 3 0 0 1 2.2-1.4z"/></svg>