<svg xmlns="http://www.w3.org/2000/svg" viewBox="0 0 140 141"><path d="M69.7 1a69.7 69.7 0 00-25.4 134.7c-.6-5.5-1.2-14 .2-20L52.7 81s-2-4.2-2-10.3c0-9.7 5.5-17 12.5-17 6 0 8.9 4.5 8.9 9.8 0 6-3.8 15-5.8 23.3-1.7 7 3.5 12.6 10.3 12.6 12.4 0 22-13 22-31.9 0-16.7-12-28.3-29.2-28.3a30.2 30.2 0 00-31.5 30.2c0 6 2.3 12.4 5.1 15.9.6.7.7 1.3.5 2l-2 8c-.2 1.2-1 1.5-2.3.8-8.7-4-14.2-16.7-14.2-27C25 47.1 41 27 71 27c24.2 0 43 17.2 43 40.3 0 24-15 43.4-36 43.4-7.1 0-13.8-3.7-16-8L57.6 119a76 76 0 01-8.7 18.3 70 70 0 0090.4-66.6A69.6 69.6 0 0069.7 1z"/></svg>