<svg xmlns="http://www.w3.org/2000/svg" viewBox="0 0 182 140"><path fill="#1F1F1F" fill-rule="evenodd" d="M179.8 107.2a34 34 0 0 1-12.2 7.6L103 138v-17l47.5-17c5.4-1.9 6.2-4.6 1.8-6a32 32 0 0 0-17.7.9l-31.6 11V92.2l1.8-.6s9.2-3.3 22-4.7a94 94 0 0 1 41 4.9c14 4.4 15.5 10.9 12 15.4zM109 78V34.3c0-5.2-1-9.9-5.7-11.2-3.7-1.2-6 2.2-6 7.3V140l-29.6-9.4V0a329 329 0 0 1 40.7 11.2c25 8.6 33.5 19.2 33.5 43.3C142 78 127.5 87 109.1 78zm-95.5 41.1c-14.3-4-16.7-12.4-10.2-17.3 6-4.4 16.3-7.8 16.3-7.8L62 79v17l-30.5 11c-5.4 1.9-6.2 4.6-1.8 6 4.3 1.5 12.3 1 17.7-.9L62 107v15.4l-3 .5a95.8 95.8 0 0 1-45.5-3.7z"/></svg>