<svg xmlns="http://www.w3.org/2000/svg" viewBox="0 0 140 109"><path fill="#1F1F1F" fill-rule="evenodd" d="M138.8 82.7c-2.8 3.5-9.5 6-9.5 6l-49.8 17.8V93.3l36.7-13c4.1-1.5 4.8-3.7 1.4-4.8a26 26 0 0 0-13.7.7l-24.4 8.6V71.1l1.4-.4s7-2.5 17-3.6 22 .1 31.6 3.7c10.8 3.4 12 8.5 9.3 11.9zM84.2 60.2V26.5c0-4-.7-7.7-4.4-8.7-2.9-1-4.6 1.7-4.6 5.7v84.6l-22.9-7.3V0a268 268 0 0 1 31.5 8.6c19.3 6.6 25.8 14.9 25.8 33.5 0 18.1-11.2 25-25.4 18.1zM10.5 92c-11-3-12.9-9.6-7.8-13.3 4.6-3.4 12.5-6 12.5-6L48 60.9v13.3l-23.5 8.4c-4.2 1.5-4.8 3.6-1.4 4.7s9.5.8 13.6-.7l11.3-4v11.8l-2.2.4a74 74 0 0 1-35.2-2.9z"/></svg>