<svg xmlns="http://www.w3.org/2000/svg" viewBox="0 0 297 140"><path d="M297.4 30.7a9.3 9.3 0 0 1-9.5 11.1h-20.1V28h6.1c6.2 0 11.4-5.2 11.4-11.4v-5c0-6.3 1.6-11.5 3.5-11.5s4.3 5 5.4 11.3l3.2 19.4zm-45.6-16.4c6.4 0 11.5 5 11.7 11.5v59.5c0 6.3-5.2 11.5-11.4 11.5h-30.8c-6.2 0-11.4-5.2-11.4-11.5V62a11 11 0 0 0-4.6 9v19.7c0 6.2 5.2 11.4 11.4 11.4h20v30.4a7 7 0 0 1-7 7h-37.6a7 7 0 0 1-7-7v-28.3a7 7 0 0 0-7-7H84a7 7 0 0 0-7 7v28.3a7 7 0 0 1-7 7H32.3a7 7 0 0 1-7-7V51.2l-17 13.4c-.8.5-1.8.5-2.5-.3L1 58.6c-.5-.7-.5-1.4-.1-2.1l25-38a7 7 0 0 1 6.3-4.2h132.7a7 7 0 0 1 7 8.2L169 38.7a7 7 0 0 0 7 8.3h26.6a7 7 0 0 0 6.9-5.7c-1.7.5-3.5.8-5.5.8h-19a9.4 9.4 0 0 1-9.6-11.3l3.3-19.4C179.7 5.1 182 0 184 0s3.5 5.2 3.5 11.4v3l1-.1h63.3z"/></svg>