<svg xmlns="http://www.w3.org/2000/svg" viewBox="0 0 141 66"><path d="M140.2 14.5a4.4 4.4 0 0 1-4.5 5.2h-9.5v-6.5h2.9c3 0 5.4-2.5 5.4-5.4V5.4c0-3 .7-5.4 1.7-5.4.8 0 2 2.4 2.5 5.3l1.5 9.2zm-21.5-7.8c3 0 5.4 2.4 5.5 5.5v28c0 3-2.4 5.4-5.4 5.4h-14.5c-3 0-5.4-2.4-5.4-5.4v-11a5.4 5.4 0 0 0-2.1 4.3v9.2c0 3 2.4 5.4 5.4 5.4h9.4v14.4c0 1.8-1.5 3.3-3.3 3.3H90.5a3.3 3.3 0 0 1-3.3-3.3V49c0-1.8-1.4-3.3-3.3-3.3H39.6a3.3 3.3 0 0 0-3.3 3.3v13.4c0 1.8-1.5 3.3-3.3 3.3H15.2a3.3 3.3 0 0 1-3.3-3.3V24l-8 6.3c-.4.3-.9.3-1.2 0L.5 27.5a.8.8 0 0 1 0-1L12.1 8.7c.5-1.2 1.6-2 3-2h62.5c2 0 3.6 1.9 3.3 3.9l-1.3 7.6c-.3 2 1.2 4 3.3 4h12.5c1.7 0 3-1.3 3.3-2.8-.8.3-1.7.4-2.6.4h-9c-3 0-5-2.4-4.5-5.3l1.5-9.2c.5-3 1.6-5.3 2.6-5.3.9 0 1.6 2.4 1.6 5.4v1.4h30.3z"/></svg>