<svg xmlns="http://www.w3.org/2000/svg" viewBox="0 0 140 124"><path d="M139.8 62c0 9.2-11.5 18-29.2 23.4 4.2 18 2.4 32.3-5.6 36.9-2 1-4 1.6-6.5 1.6-7.8 0-18-5.5-28.4-15.1-10.3 9.6-20.6 15.2-28.4 15.2-2.4 0-4.6-.5-6.4-1.6-8-4.6-9.9-19-5.8-37C11.8 80 .2 71.2.2 62s11.5-17.9 29.2-23.4c-4.1-18-2.3-32.3 5.7-36.9C37 .7 39 .1 41.5.1v6.4c-1.3 0-2.4.2-3.3.7-3.8 2.2-5.4 10.7-4.1 21.5.3 2.7.8 5.4 1.5 8.2 5.5-1.3 11.6-2.4 18-3 3.9-5.3 7.8-10 11.8-14.2-9.3-8.6-18-13.3-23.9-13.3V.1c7.8 0 18 5.5 28.4 15.1C80.3 5.6 90.5 0 98.4 0v6.3c-6 0-14.7 4.7-24 13.3 4 4.2 8 9 11.9 14.2 6.4.7 12.5 1.8 18 3.1.7-2.8 1.2-5.7 1.5-8.3 1.3-10.9-.3-19.3-4.2-21.5-.9-.5-2-.7-3.3-.7V0c2.4 0 4.6.5 6.4 1.6 8 4.6 9.9 19 5.8 37 17.7 5.4 29.3 14.2 29.3 23.4zm-37-19C99 42.3 95 41.5 91 40.9a153.5 153.5 0 0 1 7.8 13.5c1.5-3.8 2.8-7.6 3.9-11.2zm-13 30.3c2-3.7 4-7.5 5.8-11.3a147.7 147.7 0 0 0-12.8-22.1 159.3 159.3 0 0 0-25.7 0 151.1 151.1 0 0 0-12.7 22.2 147.7 147.7 0 0 0 12.8 22 159.3 159.3 0 0 0 25.7 0c2.3-3.3 4.6-7 6.8-10.8zm9.1-3.7a161 161 0 0 1-7.8 13.6c4-.6 8-1.4 11.7-2.3-1-3.7-2.4-7.5-3.9-11.3zM70.1 99.9c2.6-2.7 5.2-5.8 7.8-9.1a145 145 0 0 1-15.8 0 117 117 0 0 0 8 9zM48.9 83.2A187.8 187.8 0 0 1 41 69.7c-1.5 3.8-2.8 7.6-3.9 11.2 3.7 1 7.6 1.7 11.7 2.3zm21-59c-2.6 2.6-5.2 5.7-7.8 9a145 145 0 0 1 15.7 0 117 117 0 0 0-7.9-9zM49 40.7c-4.1.6-8 1.4-11.8 2.3 1.1 3.7 2.4 7.5 4 11.3A160.2 160.2 0 0 1 49 40.7zM23 76.4c2.5 1 5.2 2 8 2.9 1.6-5.6 3.7-11.3 6.3-17.2A136 136 0 0 1 31 44.8c-2.8.9-5.4 1.8-7.9 2.8C13.1 52 6.5 57.6 6.5 62c0 4.5 6.5 10 16.6 14.4zm15.3 40.5c.9.5 2 .7 3.2.8 6 0 14.7-4.7 24-13.3-4-4.2-8-9-11.9-14.2-6.4-.7-12.5-1.8-18-3.1-.7 2.8-1.2 5.7-1.5 8.3-1.3 10.9.3 19.3 4.2 21.5zM106 95.3c-.3-2.7-.8-5.4-1.5-8.3-5.5 1.4-11.6 2.5-18 3.1-3.9 5.3-7.8 10-11.8 14.2 9.3 8.5 18 13.2 23.9 13.2 1.3 0 2.4-.2 3.3-.7 3.8-2.2 5.4-10.7 4.1-21.5zm11-19c10-4.2 16.6-9.8 16.6-14.3s-6.5-10-16.6-14.4c-2.5-1-5.2-2-8-2.9-1.6 5.6-3.7 11.3-6.3 17.2a136 136 0 0 1 6.4 17.3c2.7-.9 5.4-1.8 7.9-2.8zM70 75a13 13 0 1 1 0-26 13 13 0 0 1 0 26z"/></svg>