<svg xmlns="http://www.w3.org/2000/svg" viewBox="0 0 140 125"><path d="M86 90.3c-3.8 5.4-7.8 10.3-11.8 14.6 2.3 2.2 4.5 4.1 6.7 5.8 9.5 7.3 17.1 9.5 21.1 7.2s6-10 4.3-21.8c-.4-2.8-1-5.7-1.7-8.7-5.7 1.3-12 2.3-18.5 3zm-7.8.6a172.3 172.3 0 01-16.4 0c2.7 3.5 5.4 6.7 8.2 9.7 2.8-3 5.5-6.2 8.2-9.7zm32.2-51.7c18 5.1 29.6 13.7 29.6 23.3 0 9.6-11.7 18.2-29.6 23.3 4.5 18.1 3 32.5-5.4 37.3-8.3 4.8-21.6-1-35-14-13.4 13-26.7 18.8-35 14-8.3-4.8-9.9-19.2-5.4-37.3C11.6 80.7 0 72.1 0 62.5c0-9.6 11.7-18.2 29.6-23.3C25 21 26.6 6.7 35 1.9c8.3-4.8 21.6 1 35 14 13.4-13 26.7-18.8 35-14 8.3 4.8 9.9 19.2 5.4 37.3zm-5.8-1.6a74 74 0 001.7-8.7c1.6-11.8-.3-19.5-4.3-21.8-4-2.3-11.6-.1-21 7.2a84.8 84.8 0 00-6.8 5.8c4 4.3 8 9.2 11.9 14.6 6.6.6 12.8 1.6 18.5 3zM35.4 87.4a74 74 0 00-1.7 8.7c-1.6 11.8.3 19.5 4.3 21.8 4 2.3 11.6.1 21-7.2a70 70 0 006.8-5.8c-4-4.3-8-9.2-11.9-14.6-6.6-.6-12.8-1.6-18.5-3zM61.8 34a172.3 172.3 0 0116.4 0c-2.7-3.5-5.4-6.7-8.2-9.7-2.8 3-5.5 6.2-8.2 9.7zm-7.9.6A153 153 0 0165.8 20a84.8 84.8 0 00-6.7-5.8C49.6 7 42 4.8 38 7s-6 10-4.3 21.8c.4 2.8 1 5.7 1.7 8.7 5.7-1.3 12-2.3 18.5-3zm28.9 49.9a164 164 0 0012.7-22.1 164 164 0 00-12.7-22 164 164 0 00-25.6 0 164 164 0 00-12.7 22 164 164 0 0012.7 22 164 164 0 0025.6 0zm7.7-.8c4.4-.6 8.6-1.3 12.5-2.2-1.2-4-2.6-8-4.3-12a172.3 172.3 0 01-8.2 14.2zm-41-42.6c-4.4.6-8.6 1.3-12.5 2.2 1.2 4 2.6 8 4.3 12a172.3 172.3 0 018.2-14.2zM37 81.6c4 .9 8.1 1.6 12.5 2.2a172.3 172.3 0 01-8.2-14.2c-1.7 4-3.1 8-4.3 12zM31.2 80a148 148 0 016.7-17.5c-2.8-6-5-12-6.7-17.5-3 .8-5.8 1.8-8.4 2.9C11.8 52.4 6 57.9 6 62.5s5.7 10.1 16.8 14.6c2.6 1.1 5.4 2 8.4 3zM103 43.4c-4-.9-8.1-1.6-12.5-2.2a172.3 172.3 0 018.2 14.2c1.7-4 3.1-8 4.3-12zm5.8 1.6a148 148 0 01-6.7 17.5c2.8 6 5 12 6.7 17.5 3-.8 5.8-1.8 8.4-2.9 11-4.5 16.8-10 16.8-14.6s-5.7-10.1-16.8-14.6c-2.6-1.1-5.4-2-8.4-3zM70 75a13 13 0 110-26 13 13 0 010 26z"/></svg>