<svg xmlns="http://www.w3.org/2000/svg" viewBox="0 0 140 140"><path d="M69.9 112.1c-23.3 0-33.9-11.8-33.9-20.5a7.5 7.5 0 0 1 8-7.5C54 84 51.3 99 69.9 99c9.5 0 15-5.7 15-11 0-3.3-1.8-7-8-8.5L56 74.3C39.5 70 36.5 60.8 36.5 52.2c0-17.9 16.4-24.3 31.9-24.3 14.3 0 31.3 7.9 31.3 18.6 0 4.6-3.8 7-8.3 7-8.5 0-7-11.9-24.2-11.9-8.5 0-13 4-13 9.6s6.7 7.5 12.5 8.7L82 63.4c16.8 3.8 21.2 13.6 21.2 23 0 14.5-11.2 25.7-33.3 25.7M134 81.5a66.5 66.5 0 0 0-22.3-62A65.5 65.5 0 0 0 58.3 5.2a38.5 38.5 0 0 0-53 14.5c-7 12-7 26.9-.2 39a65.6 65.6 0 0 0 76 76.3 38.5 38.5 0 0 0 52.9-14.5c7-12 7-26.9.1-39"/></svg>