<svg xmlns="http://www.w3.org/2000/svg" viewBox="0 0 140 133"><path fill-rule="evenodd" d="M71.4 1h-2.8C62.8 1 43.2 2.6 34 23.4c-3.1 7-2.4 18.9-1.8 28.4l.2 3.4c-.4.3-1.3.6-2.7.6-1.8 0-4-.6-6.4-1.7-.7-.3-1.4-.5-2.2-.5-2.9 0-6.3 2-6.8 4.7-.4 2 .5 5 7 7.6l2 .7c2.7.8 6.7 2.1 7.8 4.7.6 1.3.4 3-.7 5.1v.2c-.4.8-9 20.4-28 23.6a3 3 0 00-2.4 3c0 .4.1.9.3 1.3 1.4 3.3 7.5 5.8 18.4 7.5.4.5.8 2.3 1 3.3l.8 3.3a3.2 3.2 0 003.4 2.5c1 0 2-.2 3.2-.4a32.7 32.7 0 0112.8-.4c3.5.6 6.5 2.7 10 5.2a31.5 31.5 0 0021 7.5c8.6 0 14.2-4 19.2-7.5 3.5-2.5 6.5-4.6 10-5.2a32.7 32.7 0 0112.8.3c1.3.3 2.4.4 3.2.4h.1c1.7 0 2.8-.9 3.3-2.4l.8-3.3c.2-1 .6-2.8 1-3.3 11-1.7 17-4.2 18.4-7.5.2-.4.3-.9.3-1.3a3 3 0 00-2.4-3c-19-3.2-27.6-22.8-28-23.6v-.2c-1-2-1.3-3.8-.7-5.1 1-2.6 5.1-3.9 7.8-4.7l2-.7c4.8-2 7.2-4.2 7.1-6.9 0-2-1.7-4-4.3-4.9a6.8 6.8 0 00-5.6 0c-2.2 1-4.2 1.6-6 1.7-1.2 0-2-.3-2.3-.6l.1-3v-.4c.7-9.5 1.4-21.4-1.7-28.4A37.3 37.3 0 0071.4 1z"/></svg>