<svg xmlns="http://www.w3.org/2000/svg" viewBox="0 0 120 140"><path fill-rule="evenodd" d="M37.5 7c1.2-4 5-7 9.5-7h25c4.5 0 8.3 3 9.5 7h30a8.5 8.5 0 0 1 0 17H8.5a8.5 8.5 0 1 1 0-17h29zM13 30h94a8 8 0 0 1 8 8.8l-9.6 94a8 8 0 0 1-8 7.2H22.6a8 8 0 0 1-8-7.2L5 38.8a8 8 0 0 1 8-8.8zm22 24.7a5.2 5.2 0 0 0-6-4.6 5.9 5.9 0 0 0-4.9 6.4l6.6 59.6a5.2 5.2 0 0 0 6 4.6 6 6 0 0 0 4.9-6.4L35 54.7zm30.2.6a5.3 5.3 0 0 0-5.4-5.3 5.7 5.7 0 0 0-5.5 5.7v60a5.3 5.3 0 0 0 5.5 5.3c3-.1 5.5-2.6 5.5-5.7v-60zM85 55l-6.5 58.6a6 6 0 0 0 4.9 6.4 5.2 5.2 0 0 0 6-4.6L96 56.8a6 6 0 0 0-4.9-6.4 5.2 5.2 0 0 0-6 4.6z"/></svg>