<svg xmlns="http://www.w3.org/2000/svg" viewBox="0 0 132 140"><path d="M117.1 13.6c11.5 9.9 17.8 32 13.6 66.8-4.2 33.8-29.7 37.1-34.2 38.6-2 .6-19.1 4.9-41.5 3l-8 9.2c-4.4 4.6-7 9-11.6 7.5-3.7-1.1-3.5-6.8-3.5-6.8v-14C-.8 108.7-.3 75 .1 57c.3-18.1 3.8-32.7 13.8-42.6C32-2.1 68.5 0 68.5 0c31.2.1 45.1 10.3 48.6 13.5zm3.8 64.3c3.6-29-1.4-49-11-57.3-3-2.6-15.6-10.6-42-10.7 0 0-31.1-2-46.3 11.7-8.4 8.3-11.2 20.6-11.5 35.7-.3 15-2 43.9 25.7 51.5l-.2 23.3c0 1.3.2 2.2 1 2.4.5.1 1.4-.1 2-.8 4.5-4.5 18.6-21.5 18.6-21.5 19 1.3 34-2.5 35.7-3 3.8-1.2 24.5-3 28-31.3zM83.8 56a2.4 2.4 0 01-4.9.3c-.3-5.7-2.8-8.3-8.2-8.6a2.4 2.4 0 11.2-4.8c8 .4 12.5 5 12.9 13.2zm9 3.3a2.4 2.4 0 01-4.9-.1c.2-5.9-1.5-10.6-5-14.4-3.6-3.9-8.5-6-15-6.5a2.4 2.4 0 11.4-4.8 26 26 0 0118.1 8 24.5 24.5 0 016.4 17.8zm9.3 3.5a2.4 2.4 0 01-5 0c0-10.5-3-18.6-9.2-24.6-6.1-6-13.7-9-22.9-9a2.4 2.4 0 110-4.9c10.4 0 19.3 3.6 26.3 10.4 7 7 10.7 16.3 10.8 28.1zm-31 17s2.6.1 3.9-1.5l2.6-3.3c1.2-1.6 4.2-2.6 7.2-1a77.7 77.7 0 0112.5 9c1.9 1.6 2.3 4 1 6.4a27 27 0 01-5.4 6.7 10.7 10.7 0 01-5.5 2.7h-.8c-.8 0-1.6 0-2.4-.3a84 84 0 01-15.1-7A89 89 0 0150.7 78l-.2-.1-.2-.2-.2-.2-.2-.2a90 90 0 01-13.4-18.4 79.4 79.4 0 01-7-15v-.1a6.9 6.9 0 01-.4-3.1c.2-1.8 1.1-3.7 2.7-5.5 2-2.3 4.3-4.1 6.7-5.5 2.5-1.3 5-.8 6.5 1l4.8 6c1.4 2 3.2 4.9 4.1 6.5 1.7 3 .7 6-1 7.3L49.7 53c-1.7 1.4-1.5 3.8-1.5 3.8s4.9 18.3 23 23z"/></svg>