<svg xmlns="http://www.w3.org/2000/svg" viewBox="0 0 140 140"><path d="M70 139.5c-30.6 0-47.6 0-58.8-11-11-11.2-11-28.1-11-58.6s0-47.5 11-58.6C22.4.3 39.4.3 70 .3c30.6 0 47.6 0 58.8 11 11 11 11 28 11 58.5 0 30.6 0 47.5-11 58.6-11.2 11-28.2 11-58.8 11zM106.8 33a52.4 52.4 0 00-74 0 52 52 0 000 73.8 52.4 52.4 0 0074 0 52 52 0 000-73.8zm-3.2 24l-25.8 45a8.6 8.6 0 01-7.2 4.7 8.3 8.3 0 01-8.2-4.3L46.2 74l-10-17.2a8.7 8.7 0 017.2-13.1 8.3 8.3 0 018 4.5l7.2 12.5 5.2 9c2.6 4.3 6.4 6.7 11.5 7a14 14 0 0014.6-12.3L90 63c0-2.5-.4-4.6-1.4-6.5a8.7 8.7 0 1115 .4z"/></svg>