<svg xmlns="http://www.w3.org/2000/svg" viewBox="0 0 172 140"><path d="M144 137.8a7.5 7.5 0 0 1-10.6-10.7 80 80 0 0 0 .4-113.3c-3-3-3-7.7 0-10.6 3-3 7.7-3 10.6 0a95 95 0 0 1-.5 134.6zM27 48l35.8-23.8a6 6 0 0 1 9.4 5v82.6a6 6 0 0 1-9.4 5L27.1 93H5a8 8 0 0 1-8-8V56a8 8 0 0 1 8-8h22zm95.4 72.2c-3 3-7.7 2.9-10.6 0-3-3-3-7.8 0-10.7a55 55 0 0 0 0-78.4c-2.9-3-3-7.7 0-10.6 3-3 7.7-3 10.6-.1a70 70 0 0 1 0 99.8zM101 101.6c-3 3-7.7 3-10.6 0-3-3-3-7.7 0-10.6a30 30 0 0 0 .1-42.5 7.5 7.5 0 0 1 10.7-10.6 45 45 0 0 1-.2 63.7z"/></svg>