<svg xmlns="http://www.w3.org/2000/svg" viewBox="0 0 140 140"><path d="M140 68.2a68.5 68.5 0 01-102 59.7L0 140l12.4-36.6A68.5 68.5 0 0171.3 0c38 0 68.7 30.5 68.7 68.2zM71.3 10.9a57.6 57.6 0 00-57.8 57.3c0 12.5 4 24.2 11 33.6l-7.2 21.3 22.2-7a57.7 57.7 0 0089.5-48c0-31.6-26-57.3-57.8-57.3zm34.7 73c-.4-.7-1.6-1.1-3.3-2l-11.5-5.4c-1.5-.5-2.6-.8-3.8.9a96.4 96.4 0 01-5.3 6.5c-1 1.1-2 1.3-3.6.4-1.7-.8-7.2-2.6-13.6-8.3-5-4.4-8.4-9.9-9.4-11.5-1-1.7 0-2.6.8-3.5l2.5-2.9c.9-1 1.1-1.7 1.7-2.8.6-1 .3-2-.1-2.9-.5-.8-3.8-9-5.2-12.4-1.4-3.4-3.7-2.9-3.8-3H48c-1 0-3 .5-4.5 2.2-1.5 1.6-5.9 5.7-5.9 13.9s6 16.2 7 17.3c.8 1.1 11.6 18.5 28.7 25.2 17.1 6.7 17.1 4.5 20.2 4.2 3.1-.3 10-4 11.4-8 1.4-3.9 1.4-7.2 1-7.9z"/></svg>